<mxfile host="app.diagrams.net" modified="2023-01-10T15:37:21.814Z" agent="5.0 (Macintosh; Intel Mac OS X 10_15_7) AppleWebKit/605.1.15 (KHTML, like Gecko) Version/16.2 Safari/605.1.15" etag="o7QjIHH5wMwTVfwAWV_M" version="20.8.3" type="github" pages="3">
  <diagram name="Traditional SDLC" id="OC9fwi3H5FiqCltE9ebg">
    <mxGraphModel dx="1687" dy="946" grid="1" gridSize="10" guides="1" tooltips="1" connect="1" arrows="1" fold="1" page="1" pageScale="1" pageWidth="1654" pageHeight="1169" math="0" shadow="0">
      <root>
        <mxCell id="6UTS02K1pKTTUHXM-cYw-0" />
        <mxCell id="6UTS02K1pKTTUHXM-cYw-1" parent="6UTS02K1pKTTUHXM-cYw-0" />
        <mxCell id="6UTS02K1pKTTUHXM-cYw-2" value="" style="whiteSpace=wrap;html=1;rounded=1;shadow=0;strokeColor=#FFB570;strokeWidth=2;fontFamily=Verdana;fillColor=none;" parent="6UTS02K1pKTTUHXM-cYw-1" vertex="1">
          <mxGeometry x="540" y="502" width="260" height="144" as="geometry" />
        </mxCell>
        <mxCell id="SC9fLX6b7BTCBccmanfQ-1" value="" style="whiteSpace=wrap;html=1;rounded=1;shadow=0;strokeColor=#CDA2BE;strokeWidth=2;fontFamily=Verdana;fillColor=none;" parent="6UTS02K1pKTTUHXM-cYw-1" vertex="1">
          <mxGeometry x="271.13" y="713" width="237.75" height="140" as="geometry" />
        </mxCell>
        <mxCell id="6UTS02K1pKTTUHXM-cYw-3" value="" style="whiteSpace=wrap;html=1;rounded=1;shadow=0;strokeColor=#CDA2BE;strokeWidth=2;fontFamily=Verdana;fillColor=none;" parent="6UTS02K1pKTTUHXM-cYw-1" vertex="1">
          <mxGeometry x="271.13" y="503.5" width="237.75" height="142.5" as="geometry" />
        </mxCell>
        <mxCell id="6UTS02K1pKTTUHXM-cYw-4" value="" style="edgeStyle=orthogonalEdgeStyle;rounded=0;html=1;jettySize=auto;orthogonalLoop=1;plain-blue;endArrow=none;endFill=0;strokeWidth=4;strokeColor=#000000;" parent="6UTS02K1pKTTUHXM-cYw-1" source="6UTS02K1pKTTUHXM-cYw-6" target="6UTS02K1pKTTUHXM-cYw-7" edge="1">
          <mxGeometry x="254.5" y="411" as="geometry" />
        </mxCell>
        <mxCell id="6UTS02K1pKTTUHXM-cYw-5" style="edgeStyle=orthogonalEdgeStyle;curved=1;rounded=0;html=1;exitX=1;exitY=0.5;exitPerimeter=0;entryX=0;entryY=0.5;entryPerimeter=0;endArrow=none;endFill=0;jettySize=auto;orthogonalLoop=1;strokeWidth=4;fontSize=15;" parent="6UTS02K1pKTTUHXM-cYw-1" source="6UTS02K1pKTTUHXM-cYw-6" target="6UTS02K1pKTTUHXM-cYw-10" edge="1">
          <mxGeometry relative="1" as="geometry">
            <Array as="points">
              <mxPoint x="250" y="411" />
              <mxPoint x="250" y="566" />
            </Array>
          </mxGeometry>
        </mxCell>
        <mxCell id="6UTS02K1pKTTUHXM-cYw-6" value="" style="verticalLabelPosition=bottom;verticalAlign=top;html=1;strokeWidth=4;shape=mxgraph.flowchart.on-page_reference;plain-blue;gradientColor=none;fillColor=#B5E3Fe;strokeColor=#000000;" parent="6UTS02K1pKTTUHXM-cYw-1" vertex="1">
          <mxGeometry x="175.5" y="396" width="30" height="30" as="geometry" />
        </mxCell>
        <mxCell id="6UTS02K1pKTTUHXM-cYw-7" value="" style="verticalLabelPosition=bottom;verticalAlign=top;html=1;strokeWidth=4;shape=mxgraph.flowchart.on-page_reference;plain-blue;gradientColor=none;strokeColor=#000000;" parent="6UTS02K1pKTTUHXM-cYw-1" vertex="1">
          <mxGeometry x="975" y="396" width="30" height="30" as="geometry" />
        </mxCell>
        <mxCell id="6UTS02K1pKTTUHXM-cYw-8" value="main" style="text;html=1;strokeColor=none;fillColor=none;align=center;verticalAlign=middle;whiteSpace=wrap;overflow=hidden;fontSize=14;fontStyle=1;fontFamily=Courier New;" parent="6UTS02K1pKTTUHXM-cYw-1" vertex="1">
          <mxGeometry x="120" y="401" width="50" height="20" as="geometry" />
        </mxCell>
        <mxCell id="6UTS02K1pKTTUHXM-cYw-9" style="edgeStyle=orthogonalEdgeStyle;curved=1;rounded=0;html=1;exitX=1;exitY=0.5;exitPerimeter=0;entryX=0;entryY=0.5;entryPerimeter=0;endArrow=none;endFill=0;jettySize=auto;orthogonalLoop=1;strokeWidth=4;fontSize=15;entryDx=0;entryDy=0;startArrow=none;" parent="6UTS02K1pKTTUHXM-cYw-1" source="6UTS02K1pKTTUHXM-cYw-19" target="6UTS02K1pKTTUHXM-cYw-12" edge="1">
          <mxGeometry relative="1" as="geometry">
            <mxPoint x="369.5" y="566" as="targetPoint" />
          </mxGeometry>
        </mxCell>
        <mxCell id="6UTS02K1pKTTUHXM-cYw-10" value="" style="verticalLabelPosition=bottom;verticalAlign=top;html=1;strokeWidth=4;shape=mxgraph.flowchart.on-page_reference;plain-purple;gradientColor=none;strokeColor=#000000;" parent="6UTS02K1pKTTUHXM-cYw-1" vertex="1">
          <mxGeometry x="294.5" y="551" width="30" height="30" as="geometry" />
        </mxCell>
        <mxCell id="6UTS02K1pKTTUHXM-cYw-11" style="edgeStyle=orthogonalEdgeStyle;curved=1;rounded=0;html=1;exitX=1;exitY=0.5;exitPerimeter=0;entryX=0;entryY=0.5;entryPerimeter=0;endArrow=none;endFill=0;jettySize=auto;orthogonalLoop=1;strokeWidth=4;fontSize=15;exitDx=0;exitDy=0;" parent="6UTS02K1pKTTUHXM-cYw-1" source="6UTS02K1pKTTUHXM-cYw-31" target="6UTS02K1pKTTUHXM-cYw-7" edge="1">
          <mxGeometry relative="1" as="geometry">
            <mxPoint x="933" y="491" as="sourcePoint" />
          </mxGeometry>
        </mxCell>
        <mxCell id="6UTS02K1pKTTUHXM-cYw-12" value="" style="verticalLabelPosition=bottom;verticalAlign=top;html=1;strokeWidth=4;shape=mxgraph.flowchart.on-page_reference;plain-purple;gradientColor=none;strokeColor=#000000;" parent="6UTS02K1pKTTUHXM-cYw-1" vertex="1">
          <mxGeometry x="454.5" y="551" width="30" height="30" as="geometry" />
        </mxCell>
        <mxCell id="6UTS02K1pKTTUHXM-cYw-13" value="Feature 1&lt;br&gt;Developer A" style="text;html=1;strokeColor=none;fillColor=none;align=right;verticalAlign=middle;whiteSpace=wrap;overflow=hidden;fontSize=14;fontStyle=1;fontFamily=Courier New;" parent="6UTS02K1pKTTUHXM-cYw-1" vertex="1">
          <mxGeometry x="107" y="540" width="108.38" height="40" as="geometry" />
        </mxCell>
        <mxCell id="6UTS02K1pKTTUHXM-cYw-15" value="Tag: 1.0.0" style="text;html=1;strokeColor=none;fillColor=none;align=center;verticalAlign=middle;whiteSpace=wrap;overflow=hidden;fontSize=14;" parent="6UTS02K1pKTTUHXM-cYw-1" vertex="1">
          <mxGeometry x="208.38" y="371" width="70" height="20" as="geometry" />
        </mxCell>
        <mxCell id="6UTS02K1pKTTUHXM-cYw-17" value="&lt;div style=&quot;&quot;&gt;Developer Manual Operations&lt;/div&gt;" style="text;html=1;strokeColor=none;fillColor=none;align=center;verticalAlign=middle;whiteSpace=wrap;overflow=hidden;fontSize=14;fontStyle=1;fontFamily=Verdana;shadow=1;" parent="6UTS02K1pKTTUHXM-cYw-1" vertex="1">
          <mxGeometry x="590" y="608" width="160" height="40" as="geometry" />
        </mxCell>
        <mxCell id="6UTS02K1pKTTUHXM-cYw-18" style="edgeStyle=orthogonalEdgeStyle;curved=1;rounded=0;html=1;entryX=1;entryY=0.5;entryPerimeter=0;endArrow=none;endFill=0;jettySize=auto;orthogonalLoop=1;strokeWidth=4;fontSize=15;entryDx=0;entryDy=0;exitX=0;exitY=0.5;exitDx=0;exitDy=0;exitPerimeter=0;" parent="6UTS02K1pKTTUHXM-cYw-1" source="6UTS02K1pKTTUHXM-cYw-25" target="6UTS02K1pKTTUHXM-cYw-12" edge="1">
          <mxGeometry relative="1" as="geometry">
            <mxPoint x="530" y="650.0000000000001" as="sourcePoint" />
            <mxPoint x="550.5" y="615" as="targetPoint" />
          </mxGeometry>
        </mxCell>
        <mxCell id="6UTS02K1pKTTUHXM-cYw-19" value="" style="verticalLabelPosition=bottom;verticalAlign=top;html=1;strokeWidth=4;shape=mxgraph.flowchart.on-page_reference;plain-purple;gradientColor=none;strokeColor=#000000;" parent="6UTS02K1pKTTUHXM-cYw-1" vertex="1">
          <mxGeometry x="375" y="551" width="30" height="30" as="geometry" />
        </mxCell>
        <mxCell id="6UTS02K1pKTTUHXM-cYw-20" value="" style="edgeStyle=orthogonalEdgeStyle;curved=1;rounded=0;html=1;exitX=1;exitY=0.5;exitPerimeter=0;entryX=0;entryY=0.5;entryPerimeter=0;endArrow=none;endFill=0;jettySize=auto;orthogonalLoop=1;strokeWidth=4;fontSize=15;entryDx=0;entryDy=0;" parent="6UTS02K1pKTTUHXM-cYw-1" source="6UTS02K1pKTTUHXM-cYw-10" target="6UTS02K1pKTTUHXM-cYw-19" edge="1">
          <mxGeometry relative="1" as="geometry">
            <mxPoint x="327.5" y="566" as="sourcePoint" />
            <mxPoint x="442.5" y="566" as="targetPoint" />
          </mxGeometry>
        </mxCell>
        <mxCell id="6UTS02K1pKTTUHXM-cYw-22" value="Build" style="text;html=1;align=center;verticalAlign=middle;resizable=0;points=[];autosize=1;strokeColor=none;fillColor=none;fontFamily=Verdana;fontStyle=1" parent="6UTS02K1pKTTUHXM-cYw-1" vertex="1">
          <mxGeometry x="560" y="581" width="60" height="30" as="geometry" />
        </mxCell>
        <mxCell id="6UTS02K1pKTTUHXM-cYw-23" value="Feature&lt;br&gt;Test" style="text;html=1;align=center;verticalAlign=middle;resizable=0;points=[];autosize=1;strokeColor=none;fillColor=none;fontFamily=Verdana;fontStyle=1" parent="6UTS02K1pKTTUHXM-cYw-1" vertex="1">
          <mxGeometry x="630" y="576" width="80" height="40" as="geometry" />
        </mxCell>
        <mxCell id="6UTS02K1pKTTUHXM-cYw-25" value="" style="verticalLabelPosition=bottom;verticalAlign=top;html=1;strokeWidth=4;shape=mxgraph.flowchart.on-page_reference;strokeColor=#d79b00;fillColor=#ffe6cc;" parent="6UTS02K1pKTTUHXM-cYw-1" vertex="1">
          <mxGeometry x="575" y="551" width="30" height="30" as="geometry" />
        </mxCell>
        <mxCell id="6UTS02K1pKTTUHXM-cYw-26" value="" style="edgeStyle=orthogonalEdgeStyle;rounded=0;orthogonalLoop=1;jettySize=auto;html=1;fontFamily=Verdana;strokeWidth=4;strokeColor=default;endArrow=none;endFill=0;exitX=0;exitY=0.5;exitDx=0;exitDy=0;exitPerimeter=0;entryX=1;entryY=0.5;entryDx=0;entryDy=0;entryPerimeter=0;" parent="6UTS02K1pKTTUHXM-cYw-1" source="6UTS02K1pKTTUHXM-cYw-27" target="6UTS02K1pKTTUHXM-cYw-25" edge="1">
          <mxGeometry relative="1" as="geometry">
            <mxPoint x="660" y="566" as="sourcePoint" />
          </mxGeometry>
        </mxCell>
        <mxCell id="6UTS02K1pKTTUHXM-cYw-27" value="" style="verticalLabelPosition=bottom;verticalAlign=top;html=1;strokeWidth=4;shape=mxgraph.flowchart.on-page_reference;strokeColor=#d79b00;fillColor=#ffe6cc;" parent="6UTS02K1pKTTUHXM-cYw-1" vertex="1">
          <mxGeometry x="655" y="551" width="30" height="30" as="geometry" />
        </mxCell>
        <mxCell id="6UTS02K1pKTTUHXM-cYw-29" value="" style="edgeStyle=orthogonalEdgeStyle;rounded=0;orthogonalLoop=1;jettySize=auto;html=1;fontFamily=Verdana;strokeWidth=4;strokeColor=default;endArrow=none;endFill=0;exitX=0;exitY=0.5;exitDx=0;exitDy=0;exitPerimeter=0;entryX=1;entryY=0.5;entryDx=0;entryDy=0;entryPerimeter=0;" parent="6UTS02K1pKTTUHXM-cYw-1" target="6UTS02K1pKTTUHXM-cYw-27" edge="1">
          <mxGeometry relative="1" as="geometry">
            <mxPoint x="735" y="566" as="sourcePoint" />
            <mxPoint x="687" y="565.86" as="targetPoint" />
          </mxGeometry>
        </mxCell>
        <mxCell id="6UTS02K1pKTTUHXM-cYw-31" value="" style="verticalLabelPosition=bottom;verticalAlign=top;html=1;strokeWidth=4;shape=mxgraph.flowchart.on-page_reference;plain-purple;gradientColor=none;strokeColor=#000000;" parent="6UTS02K1pKTTUHXM-cYw-1" vertex="1">
          <mxGeometry x="855" y="551" width="30" height="30" as="geometry" />
        </mxCell>
        <mxCell id="6UTS02K1pKTTUHXM-cYw-32" style="edgeStyle=orthogonalEdgeStyle;curved=1;rounded=0;html=1;endArrow=none;endFill=0;jettySize=auto;orthogonalLoop=1;strokeWidth=4;fontSize=15;entryX=0;entryY=0.5;entryDx=0;entryDy=0;entryPerimeter=0;" parent="6UTS02K1pKTTUHXM-cYw-1" target="6UTS02K1pKTTUHXM-cYw-31" edge="1">
          <mxGeometry relative="1" as="geometry">
            <mxPoint x="730" y="566" as="sourcePoint" />
            <mxPoint x="840" y="566" as="targetPoint" />
          </mxGeometry>
        </mxCell>
        <mxCell id="6UTS02K1pKTTUHXM-cYw-33" value="" style="whiteSpace=wrap;html=1;rounded=1;shadow=0;strokeColor=#FFB570;strokeWidth=2;fontFamily=Verdana;fillColor=none;" parent="6UTS02K1pKTTUHXM-cYw-1" vertex="1">
          <mxGeometry x="1060.53" y="711" width="339.47" height="150" as="geometry" />
        </mxCell>
        <mxCell id="6UTS02K1pKTTUHXM-cYw-34" value="&lt;div style=&quot;&quot;&gt;Operations Manual Deploy to DEV&lt;/div&gt;" style="text;html=1;strokeColor=none;fillColor=none;align=center;verticalAlign=middle;whiteSpace=wrap;overflow=hidden;fontSize=14;fontStyle=1;fontFamily=Verdana;shadow=1;" parent="6UTS02K1pKTTUHXM-cYw-1" vertex="1">
          <mxGeometry x="1139.02" y="821" width="182.49" height="40" as="geometry" />
        </mxCell>
        <mxCell id="6UTS02K1pKTTUHXM-cYw-35" style="edgeStyle=orthogonalEdgeStyle;curved=1;rounded=0;html=1;endArrow=none;endFill=0;jettySize=auto;orthogonalLoop=1;strokeWidth=4;fontSize=15;exitX=0;exitY=0.5;exitDx=0;exitDy=0;exitPerimeter=0;entryX=1;entryY=0.5;entryDx=0;entryDy=0;entryPerimeter=0;" parent="6UTS02K1pKTTUHXM-cYw-1" source="6UTS02K1pKTTUHXM-cYw-39" target="6UTS02K1pKTTUHXM-cYw-7" edge="1">
          <mxGeometry relative="1" as="geometry">
            <mxPoint x="1050.53" y="495.0000000000001" as="sourcePoint" />
            <mxPoint x="1005" y="411" as="targetPoint" />
            <Array as="points">
              <mxPoint x="1030" y="776" />
              <mxPoint x="1030" y="411" />
            </Array>
          </mxGeometry>
        </mxCell>
        <mxCell id="6UTS02K1pKTTUHXM-cYw-36" value="Build" style="text;html=1;align=center;verticalAlign=middle;resizable=0;points=[];autosize=1;strokeColor=none;fillColor=none;fontFamily=Verdana;fontStyle=1" parent="6UTS02K1pKTTUHXM-cYw-1" vertex="1">
          <mxGeometry x="1080.53" y="791" width="60" height="30" as="geometry" />
        </mxCell>
        <mxCell id="6UTS02K1pKTTUHXM-cYw-37" value="Test" style="text;html=1;align=center;verticalAlign=middle;resizable=0;points=[];autosize=1;strokeColor=none;fillColor=none;fontFamily=Verdana;fontStyle=1" parent="6UTS02K1pKTTUHXM-cYw-1" vertex="1">
          <mxGeometry x="1245.53" y="791" width="50" height="30" as="geometry" />
        </mxCell>
        <mxCell id="6UTS02K1pKTTUHXM-cYw-39" value="" style="verticalLabelPosition=bottom;verticalAlign=top;html=1;strokeWidth=4;shape=mxgraph.flowchart.on-page_reference;strokeColor=#d79b00;fillColor=#ffe6cc;" parent="6UTS02K1pKTTUHXM-cYw-1" vertex="1">
          <mxGeometry x="1095.53" y="761" width="30" height="30" as="geometry" />
        </mxCell>
        <mxCell id="6UTS02K1pKTTUHXM-cYw-40" value="" style="edgeStyle=orthogonalEdgeStyle;rounded=0;orthogonalLoop=1;jettySize=auto;html=1;fontFamily=Verdana;strokeWidth=4;strokeColor=default;endArrow=none;endFill=0;exitX=0;exitY=0.5;exitDx=0;exitDy=0;exitPerimeter=0;entryX=1;entryY=0.5;entryDx=0;entryDy=0;entryPerimeter=0;" parent="6UTS02K1pKTTUHXM-cYw-1" source="6UTS02K1pKTTUHXM-cYw-41" target="6UTS02K1pKTTUHXM-cYw-39" edge="1">
          <mxGeometry relative="1" as="geometry">
            <mxPoint x="1180.53" y="776" as="sourcePoint" />
          </mxGeometry>
        </mxCell>
        <mxCell id="6UTS02K1pKTTUHXM-cYw-41" value="" style="verticalLabelPosition=bottom;verticalAlign=top;html=1;strokeWidth=4;shape=mxgraph.flowchart.on-page_reference;strokeColor=#d79b00;fillColor=#ffe6cc;" parent="6UTS02K1pKTTUHXM-cYw-1" vertex="1">
          <mxGeometry x="1175.53" y="761" width="30" height="30" as="geometry" />
        </mxCell>
        <mxCell id="6UTS02K1pKTTUHXM-cYw-42" value="" style="verticalLabelPosition=bottom;verticalAlign=top;html=1;strokeWidth=4;shape=mxgraph.flowchart.on-page_reference;strokeColor=#d79b00;fillColor=#ffe6cc;" parent="6UTS02K1pKTTUHXM-cYw-1" vertex="1">
          <mxGeometry x="1255.53" y="761" width="30" height="30" as="geometry" />
        </mxCell>
        <mxCell id="6UTS02K1pKTTUHXM-cYw-43" value="" style="edgeStyle=orthogonalEdgeStyle;rounded=0;orthogonalLoop=1;jettySize=auto;html=1;fontFamily=Verdana;strokeWidth=4;strokeColor=default;endArrow=none;endFill=0;exitX=0;exitY=0.5;exitDx=0;exitDy=0;exitPerimeter=0;entryX=1;entryY=0.5;entryDx=0;entryDy=0;entryPerimeter=0;" parent="6UTS02K1pKTTUHXM-cYw-1" source="6UTS02K1pKTTUHXM-cYw-42" target="6UTS02K1pKTTUHXM-cYw-41" edge="1">
          <mxGeometry relative="1" as="geometry">
            <mxPoint x="1247.53" y="775.86" as="sourcePoint" />
            <mxPoint x="1207.53" y="775.86" as="targetPoint" />
          </mxGeometry>
        </mxCell>
        <mxCell id="6UTS02K1pKTTUHXM-cYw-44" value="Review,&lt;br&gt;Approvals" style="text;html=1;align=center;verticalAlign=middle;resizable=0;points=[];autosize=1;strokeColor=none;fillColor=none;fontFamily=Verdana;fontStyle=1" parent="6UTS02K1pKTTUHXM-cYw-1" vertex="1">
          <mxGeometry x="825" y="586" width="90" height="40" as="geometry" />
        </mxCell>
        <mxCell id="6UTS02K1pKTTUHXM-cYw-46" value="" style="edgeStyle=orthogonalEdgeStyle;rounded=0;orthogonalLoop=1;jettySize=auto;html=1;fontFamily=Verdana;strokeWidth=4;strokeColor=default;endArrow=none;endFill=0;exitX=0;exitY=0.5;exitDx=0;exitDy=0;exitPerimeter=0;entryX=1;entryY=0.5;entryDx=0;entryDy=0;entryPerimeter=0;" parent="6UTS02K1pKTTUHXM-cYw-1" source="UoXuiJUOd6vl25Bv2ZC2-71" target="6UTS02K1pKTTUHXM-cYw-42" edge="1">
          <mxGeometry relative="1" as="geometry">
            <mxPoint x="1335" y="776" as="sourcePoint" />
            <mxPoint x="1285" y="775.8899999999999" as="targetPoint" />
          </mxGeometry>
        </mxCell>
        <mxCell id="6UTS02K1pKTTUHXM-cYw-47" value="Deploy" style="text;html=1;align=center;verticalAlign=middle;resizable=0;points=[];autosize=1;strokeColor=none;fillColor=none;fontFamily=Verdana;fontStyle=1" parent="6UTS02K1pKTTUHXM-cYw-1" vertex="1">
          <mxGeometry x="1155.53" y="791" width="70" height="30" as="geometry" />
        </mxCell>
        <mxCell id="6UTS02K1pKTTUHXM-cYw-48" value="Tag: 1.0.1" style="text;html=1;strokeColor=none;fillColor=none;align=center;verticalAlign=middle;whiteSpace=wrap;overflow=hidden;fontSize=14;" parent="6UTS02K1pKTTUHXM-cYw-1" vertex="1">
          <mxGeometry x="937.5" y="371" width="105" height="20" as="geometry" />
        </mxCell>
        <mxCell id="6UTS02K1pKTTUHXM-cYw-49" style="edgeStyle=orthogonalEdgeStyle;curved=1;rounded=0;html=1;exitX=1;exitY=0.5;exitPerimeter=0;entryX=0;entryY=0.5;entryPerimeter=0;endArrow=none;endFill=0;jettySize=auto;orthogonalLoop=1;strokeWidth=4;fontSize=15;entryDx=0;entryDy=0;startArrow=none;exitDx=0;exitDy=0;" parent="6UTS02K1pKTTUHXM-cYw-1" source="6UTS02K1pKTTUHXM-cYw-7" target="6UTS02K1pKTTUHXM-cYw-50" edge="1">
          <mxGeometry relative="1" as="geometry">
            <mxPoint x="1005" y="411" as="sourcePoint" />
            <mxPoint x="1375.78" y="410.29" as="targetPoint" />
          </mxGeometry>
        </mxCell>
        <mxCell id="6UTS02K1pKTTUHXM-cYw-50" value="" style="verticalLabelPosition=bottom;verticalAlign=top;html=1;strokeWidth=4;shape=mxgraph.flowchart.on-page_reference;plain-purple;gradientColor=none;strokeColor=#000000;fillColor=#CCE5FF;" parent="6UTS02K1pKTTUHXM-cYw-1" vertex="1">
          <mxGeometry x="1105" y="396" width="30" height="30" as="geometry" />
        </mxCell>
        <mxCell id="6UTS02K1pKTTUHXM-cYw-52" value="Pull Request" style="text;html=1;align=center;verticalAlign=middle;resizable=0;points=[];autosize=1;strokeColor=none;fillColor=none;fontFamily=Verdana;fontStyle=1" parent="6UTS02K1pKTTUHXM-cYw-1" vertex="1">
          <mxGeometry x="815" y="520" width="110" height="30" as="geometry" />
        </mxCell>
        <mxCell id="6UTS02K1pKTTUHXM-cYw-54" value="Tag: 1.0.2" style="text;html=1;strokeColor=none;fillColor=none;align=center;verticalAlign=middle;whiteSpace=wrap;overflow=hidden;fontSize=14;" parent="6UTS02K1pKTTUHXM-cYw-1" vertex="1">
          <mxGeometry x="1067.5" y="371" width="105" height="20" as="geometry" />
        </mxCell>
        <mxCell id="SC9fLX6b7BTCBccmanfQ-0" value="" style="whiteSpace=wrap;html=1;rounded=1;shadow=0;strokeColor=#FFB570;strokeWidth=2;fontFamily=Verdana;fillColor=none;" parent="6UTS02K1pKTTUHXM-cYw-1" vertex="1">
          <mxGeometry x="540" y="716.5" width="260" height="136.5" as="geometry" />
        </mxCell>
        <mxCell id="SC9fLX6b7BTCBccmanfQ-2" style="edgeStyle=orthogonalEdgeStyle;curved=1;rounded=0;html=1;exitX=1;exitY=0.5;exitPerimeter=0;entryX=0;entryY=0.5;entryPerimeter=0;endArrow=none;endFill=0;jettySize=auto;orthogonalLoop=1;strokeWidth=4;fontSize=15;entryDx=0;entryDy=0;startArrow=none;" parent="6UTS02K1pKTTUHXM-cYw-1" source="SC9fLX6b7BTCBccmanfQ-9" target="SC9fLX6b7BTCBccmanfQ-4" edge="1">
          <mxGeometry relative="1" as="geometry">
            <mxPoint x="369.5" y="775.5" as="targetPoint" />
          </mxGeometry>
        </mxCell>
        <mxCell id="SC9fLX6b7BTCBccmanfQ-3" value="" style="verticalLabelPosition=bottom;verticalAlign=top;html=1;strokeWidth=4;shape=mxgraph.flowchart.on-page_reference;plain-purple;gradientColor=none;strokeColor=#000000;" parent="6UTS02K1pKTTUHXM-cYw-1" vertex="1">
          <mxGeometry x="294.5" y="760.5" width="30" height="30" as="geometry" />
        </mxCell>
        <mxCell id="SC9fLX6b7BTCBccmanfQ-4" value="" style="verticalLabelPosition=bottom;verticalAlign=top;html=1;strokeWidth=4;shape=mxgraph.flowchart.on-page_reference;plain-purple;gradientColor=none;strokeColor=#000000;" parent="6UTS02K1pKTTUHXM-cYw-1" vertex="1">
          <mxGeometry x="454.5" y="760.5" width="30" height="30" as="geometry" />
        </mxCell>
        <mxCell id="SC9fLX6b7BTCBccmanfQ-5" value="Feature 2&lt;br&gt;Developer B" style="text;html=1;strokeColor=none;fillColor=none;align=right;verticalAlign=middle;whiteSpace=wrap;overflow=hidden;fontSize=14;fontStyle=1;fontFamily=Courier New;" parent="6UTS02K1pKTTUHXM-cYw-1" vertex="1">
          <mxGeometry x="117" y="749.5" width="98.38" height="40" as="geometry" />
        </mxCell>
        <mxCell id="SC9fLX6b7BTCBccmanfQ-7" value="&lt;div style=&quot;&quot;&gt;Developer Manual Operations&lt;/div&gt;" style="text;html=1;strokeColor=none;fillColor=none;align=center;verticalAlign=middle;whiteSpace=wrap;overflow=hidden;fontSize=14;fontStyle=1;fontFamily=Verdana;shadow=1;" parent="6UTS02K1pKTTUHXM-cYw-1" vertex="1">
          <mxGeometry x="590" y="814.5" width="160" height="40" as="geometry" />
        </mxCell>
        <mxCell id="SC9fLX6b7BTCBccmanfQ-8" style="edgeStyle=orthogonalEdgeStyle;curved=1;rounded=0;html=1;entryX=1;entryY=0.5;entryPerimeter=0;endArrow=none;endFill=0;jettySize=auto;orthogonalLoop=1;strokeWidth=4;fontSize=15;entryDx=0;entryDy=0;exitX=0;exitY=0.5;exitDx=0;exitDy=0;exitPerimeter=0;" parent="6UTS02K1pKTTUHXM-cYw-1" source="SC9fLX6b7BTCBccmanfQ-15" target="SC9fLX6b7BTCBccmanfQ-4" edge="1">
          <mxGeometry relative="1" as="geometry">
            <mxPoint x="530" y="859.5000000000001" as="sourcePoint" />
            <mxPoint x="550.5" y="824.5" as="targetPoint" />
          </mxGeometry>
        </mxCell>
        <mxCell id="SC9fLX6b7BTCBccmanfQ-9" value="" style="verticalLabelPosition=bottom;verticalAlign=top;html=1;strokeWidth=4;shape=mxgraph.flowchart.on-page_reference;plain-purple;gradientColor=none;strokeColor=#000000;" parent="6UTS02K1pKTTUHXM-cYw-1" vertex="1">
          <mxGeometry x="375" y="760.5" width="30" height="30" as="geometry" />
        </mxCell>
        <mxCell id="SC9fLX6b7BTCBccmanfQ-10" value="" style="edgeStyle=orthogonalEdgeStyle;curved=1;rounded=0;html=1;exitX=1;exitY=0.5;exitPerimeter=0;entryX=0;entryY=0.5;entryPerimeter=0;endArrow=none;endFill=0;jettySize=auto;orthogonalLoop=1;strokeWidth=4;fontSize=15;entryDx=0;entryDy=0;" parent="6UTS02K1pKTTUHXM-cYw-1" source="SC9fLX6b7BTCBccmanfQ-3" target="SC9fLX6b7BTCBccmanfQ-9" edge="1">
          <mxGeometry relative="1" as="geometry">
            <mxPoint x="327.5" y="775.5" as="sourcePoint" />
            <mxPoint x="442.5" y="775.5" as="targetPoint" />
          </mxGeometry>
        </mxCell>
        <mxCell id="SC9fLX6b7BTCBccmanfQ-11" value="&lt;div style=&quot;&quot;&gt;&lt;b&gt;Multiple Commits&lt;/b&gt;&lt;br&gt;&lt;/div&gt;&lt;div style=&quot;&quot;&gt;&lt;b&gt;Feature Creation&lt;/b&gt;&lt;/div&gt;" style="text;html=1;strokeColor=none;fillColor=none;align=center;verticalAlign=middle;whiteSpace=wrap;overflow=hidden;fontSize=14;fontStyle=0;fontFamily=Verdana;shadow=1;" parent="6UTS02K1pKTTUHXM-cYw-1" vertex="1">
          <mxGeometry x="305" y="810.5" width="170" height="40" as="geometry" />
        </mxCell>
        <mxCell id="SC9fLX6b7BTCBccmanfQ-12" value="Build" style="text;html=1;align=center;verticalAlign=middle;resizable=0;points=[];autosize=1;strokeColor=none;fillColor=none;fontFamily=Verdana;fontStyle=1" parent="6UTS02K1pKTTUHXM-cYw-1" vertex="1">
          <mxGeometry x="560" y="790.5" width="60" height="30" as="geometry" />
        </mxCell>
        <mxCell id="SC9fLX6b7BTCBccmanfQ-13" value="Feature&lt;br&gt;Test" style="text;html=1;align=center;verticalAlign=middle;resizable=0;points=[];autosize=1;strokeColor=none;fillColor=none;fontFamily=Verdana;fontStyle=1" parent="6UTS02K1pKTTUHXM-cYw-1" vertex="1">
          <mxGeometry x="630" y="785.5" width="80" height="40" as="geometry" />
        </mxCell>
        <mxCell id="SC9fLX6b7BTCBccmanfQ-15" value="" style="verticalLabelPosition=bottom;verticalAlign=top;html=1;strokeWidth=4;shape=mxgraph.flowchart.on-page_reference;strokeColor=#d79b00;fillColor=#ffe6cc;" parent="6UTS02K1pKTTUHXM-cYw-1" vertex="1">
          <mxGeometry x="575" y="760.5" width="30" height="30" as="geometry" />
        </mxCell>
        <mxCell id="SC9fLX6b7BTCBccmanfQ-16" value="" style="edgeStyle=orthogonalEdgeStyle;rounded=0;orthogonalLoop=1;jettySize=auto;html=1;fontFamily=Verdana;strokeWidth=4;strokeColor=default;endArrow=none;endFill=0;exitX=0;exitY=0.5;exitDx=0;exitDy=0;exitPerimeter=0;entryX=1;entryY=0.5;entryDx=0;entryDy=0;entryPerimeter=0;" parent="6UTS02K1pKTTUHXM-cYw-1" source="SC9fLX6b7BTCBccmanfQ-17" target="SC9fLX6b7BTCBccmanfQ-15" edge="1">
          <mxGeometry relative="1" as="geometry">
            <mxPoint x="660" y="775.5" as="sourcePoint" />
          </mxGeometry>
        </mxCell>
        <mxCell id="SC9fLX6b7BTCBccmanfQ-17" value="" style="verticalLabelPosition=bottom;verticalAlign=top;html=1;strokeWidth=4;shape=mxgraph.flowchart.on-page_reference;strokeColor=#d79b00;fillColor=#ffe6cc;" parent="6UTS02K1pKTTUHXM-cYw-1" vertex="1">
          <mxGeometry x="655" y="760.5" width="30" height="30" as="geometry" />
        </mxCell>
        <mxCell id="SC9fLX6b7BTCBccmanfQ-19" value="" style="edgeStyle=orthogonalEdgeStyle;rounded=0;orthogonalLoop=1;jettySize=auto;html=1;fontFamily=Verdana;strokeWidth=4;strokeColor=default;endArrow=none;endFill=0;exitX=0;exitY=0.5;exitDx=0;exitDy=0;exitPerimeter=0;entryX=1;entryY=0.5;entryDx=0;entryDy=0;entryPerimeter=0;" parent="6UTS02K1pKTTUHXM-cYw-1" source="SC9fLX6b7BTCBccmanfQ-20" target="SC9fLX6b7BTCBccmanfQ-17" edge="1">
          <mxGeometry relative="1" as="geometry">
            <mxPoint x="735" y="775.5000000000002" as="sourcePoint" />
            <mxPoint x="687" y="775.36" as="targetPoint" />
          </mxGeometry>
        </mxCell>
        <mxCell id="SC9fLX6b7BTCBccmanfQ-20" value="" style="verticalLabelPosition=bottom;verticalAlign=top;html=1;strokeWidth=4;shape=mxgraph.flowchart.on-page_reference;plain-purple;gradientColor=none;strokeColor=#000000;" parent="6UTS02K1pKTTUHXM-cYw-1" vertex="1">
          <mxGeometry x="855" y="760.5" width="30" height="30" as="geometry" />
        </mxCell>
        <mxCell id="SC9fLX6b7BTCBccmanfQ-22" value="Review,&lt;br&gt;Approvals" style="text;html=1;align=center;verticalAlign=middle;resizable=0;points=[];autosize=1;strokeColor=none;fillColor=none;fontFamily=Verdana;fontStyle=1" parent="6UTS02K1pKTTUHXM-cYw-1" vertex="1">
          <mxGeometry x="825" y="795.5" width="90" height="40" as="geometry" />
        </mxCell>
        <mxCell id="SC9fLX6b7BTCBccmanfQ-23" value="Pull Request" style="text;html=1;align=center;verticalAlign=middle;resizable=0;points=[];autosize=1;strokeColor=none;fillColor=none;fontFamily=Verdana;fontStyle=1" parent="6UTS02K1pKTTUHXM-cYw-1" vertex="1">
          <mxGeometry x="815" y="729.5" width="110" height="30" as="geometry" />
        </mxCell>
        <mxCell id="SC9fLX6b7BTCBccmanfQ-24" value="&lt;div style=&quot;&quot;&gt;&lt;b&gt;Multiple Commits&lt;/b&gt;&lt;br&gt;&lt;/div&gt;&lt;div style=&quot;&quot;&gt;&lt;b&gt;Feature Creation&lt;/b&gt;&lt;/div&gt;" style="text;html=1;strokeColor=none;fillColor=none;align=center;verticalAlign=middle;whiteSpace=wrap;overflow=hidden;fontSize=14;fontStyle=0;fontFamily=Verdana;shadow=1;" parent="6UTS02K1pKTTUHXM-cYw-1" vertex="1">
          <mxGeometry x="305.01" y="603" width="170" height="40" as="geometry" />
        </mxCell>
        <mxCell id="SC9fLX6b7BTCBccmanfQ-25" style="edgeStyle=orthogonalEdgeStyle;curved=1;rounded=0;html=1;exitX=1;exitY=0.5;exitPerimeter=0;entryX=0;entryY=0.5;entryPerimeter=0;endArrow=none;endFill=0;jettySize=auto;orthogonalLoop=1;strokeWidth=4;fontSize=15;exitDx=0;exitDy=0;entryDx=0;entryDy=0;" parent="6UTS02K1pKTTUHXM-cYw-1" source="6UTS02K1pKTTUHXM-cYw-6" target="SC9fLX6b7BTCBccmanfQ-3" edge="1">
          <mxGeometry relative="1" as="geometry">
            <mxPoint x="215.5" y="421" as="sourcePoint" />
            <mxPoint x="304.5" y="541" as="targetPoint" />
            <Array as="points">
              <mxPoint x="230" y="411" />
              <mxPoint x="230" y="775" />
            </Array>
          </mxGeometry>
        </mxCell>
        <mxCell id="SC9fLX6b7BTCBccmanfQ-26" style="edgeStyle=orthogonalEdgeStyle;curved=1;rounded=0;html=1;exitX=1;exitY=0.5;exitPerimeter=0;entryX=0;entryY=0.5;entryPerimeter=0;endArrow=none;endFill=0;jettySize=auto;orthogonalLoop=1;strokeWidth=4;fontSize=15;exitDx=0;exitDy=0;entryDx=0;entryDy=0;" parent="6UTS02K1pKTTUHXM-cYw-1" source="SC9fLX6b7BTCBccmanfQ-20" target="6UTS02K1pKTTUHXM-cYw-7" edge="1">
          <mxGeometry relative="1" as="geometry">
            <mxPoint x="895" y="541" as="sourcePoint" />
            <mxPoint x="985" y="421" as="targetPoint" />
            <Array as="points">
              <mxPoint x="950" y="776" />
              <mxPoint x="950" y="411" />
            </Array>
          </mxGeometry>
        </mxCell>
        <mxCell id="SC9fLX6b7BTCBccmanfQ-27" value="DEV" style="text;html=1;strokeColor=none;fillColor=none;align=center;verticalAlign=middle;whiteSpace=wrap;overflow=hidden;fontSize=14;" parent="6UTS02K1pKTTUHXM-cYw-1" vertex="1">
          <mxGeometry x="1005" y="765.5" width="59.47" height="20" as="geometry" />
        </mxCell>
        <mxCell id="SC9fLX6b7BTCBccmanfQ-29" value="" style="whiteSpace=wrap;html=1;rounded=1;shadow=0;strokeColor=#FFB570;strokeWidth=2;fontFamily=Verdana;fillColor=none;" parent="6UTS02K1pKTTUHXM-cYw-1" vertex="1">
          <mxGeometry x="1150.53" y="501" width="339.47" height="150" as="geometry" />
        </mxCell>
        <mxCell id="SC9fLX6b7BTCBccmanfQ-30" value="&lt;div style=&quot;&quot;&gt;Operations Manual Deploy to PROD&lt;/div&gt;" style="text;html=1;strokeColor=none;fillColor=none;align=center;verticalAlign=middle;whiteSpace=wrap;overflow=hidden;fontSize=14;fontStyle=1;fontFamily=Verdana;shadow=1;" parent="6UTS02K1pKTTUHXM-cYw-1" vertex="1">
          <mxGeometry x="1229.02" y="611" width="182.49" height="40" as="geometry" />
        </mxCell>
        <mxCell id="SC9fLX6b7BTCBccmanfQ-31" value="Build" style="text;html=1;align=center;verticalAlign=middle;resizable=0;points=[];autosize=1;strokeColor=none;fillColor=none;fontFamily=Verdana;fontStyle=1" parent="6UTS02K1pKTTUHXM-cYw-1" vertex="1">
          <mxGeometry x="1170.53" y="581" width="60" height="30" as="geometry" />
        </mxCell>
        <mxCell id="SC9fLX6b7BTCBccmanfQ-32" value="Test" style="text;html=1;align=center;verticalAlign=middle;resizable=0;points=[];autosize=1;strokeColor=none;fillColor=none;fontFamily=Verdana;fontStyle=1" parent="6UTS02K1pKTTUHXM-cYw-1" vertex="1">
          <mxGeometry x="1335.53" y="581" width="50" height="30" as="geometry" />
        </mxCell>
        <mxCell id="SC9fLX6b7BTCBccmanfQ-33" value="Security" style="text;html=1;align=center;verticalAlign=middle;resizable=0;points=[];autosize=1;strokeColor=none;fillColor=none;fontFamily=Verdana;fontStyle=1" parent="6UTS02K1pKTTUHXM-cYw-1" vertex="1">
          <mxGeometry x="1400" y="581" width="80" height="30" as="geometry" />
        </mxCell>
        <mxCell id="SC9fLX6b7BTCBccmanfQ-34" value="" style="verticalLabelPosition=bottom;verticalAlign=top;html=1;strokeWidth=4;shape=mxgraph.flowchart.on-page_reference;strokeColor=#d79b00;fillColor=#ffe6cc;" parent="6UTS02K1pKTTUHXM-cYw-1" vertex="1">
          <mxGeometry x="1185.53" y="551" width="30" height="30" as="geometry" />
        </mxCell>
        <mxCell id="SC9fLX6b7BTCBccmanfQ-35" value="" style="edgeStyle=orthogonalEdgeStyle;rounded=0;orthogonalLoop=1;jettySize=auto;html=1;fontFamily=Verdana;strokeWidth=4;strokeColor=default;endArrow=none;endFill=0;exitX=0;exitY=0.5;exitDx=0;exitDy=0;exitPerimeter=0;entryX=1;entryY=0.5;entryDx=0;entryDy=0;entryPerimeter=0;" parent="6UTS02K1pKTTUHXM-cYw-1" source="SC9fLX6b7BTCBccmanfQ-36" target="SC9fLX6b7BTCBccmanfQ-34" edge="1">
          <mxGeometry relative="1" as="geometry">
            <mxPoint x="1270.53" y="566" as="sourcePoint" />
          </mxGeometry>
        </mxCell>
        <mxCell id="SC9fLX6b7BTCBccmanfQ-36" value="" style="verticalLabelPosition=bottom;verticalAlign=top;html=1;strokeWidth=4;shape=mxgraph.flowchart.on-page_reference;strokeColor=#d79b00;fillColor=#ffe6cc;" parent="6UTS02K1pKTTUHXM-cYw-1" vertex="1">
          <mxGeometry x="1265.53" y="551" width="30" height="30" as="geometry" />
        </mxCell>
        <mxCell id="SC9fLX6b7BTCBccmanfQ-37" value="" style="verticalLabelPosition=bottom;verticalAlign=top;html=1;strokeWidth=4;shape=mxgraph.flowchart.on-page_reference;strokeColor=#d79b00;fillColor=#ffe6cc;" parent="6UTS02K1pKTTUHXM-cYw-1" vertex="1">
          <mxGeometry x="1345.53" y="551" width="30" height="30" as="geometry" />
        </mxCell>
        <mxCell id="SC9fLX6b7BTCBccmanfQ-38" value="" style="edgeStyle=orthogonalEdgeStyle;rounded=0;orthogonalLoop=1;jettySize=auto;html=1;fontFamily=Verdana;strokeWidth=4;strokeColor=default;endArrow=none;endFill=0;exitX=0;exitY=0.5;exitDx=0;exitDy=0;exitPerimeter=0;entryX=1;entryY=0.5;entryDx=0;entryDy=0;entryPerimeter=0;" parent="6UTS02K1pKTTUHXM-cYw-1" source="SC9fLX6b7BTCBccmanfQ-37" target="SC9fLX6b7BTCBccmanfQ-36" edge="1">
          <mxGeometry relative="1" as="geometry">
            <mxPoint x="1337.53" y="565.86" as="sourcePoint" />
            <mxPoint x="1297.53" y="565.86" as="targetPoint" />
          </mxGeometry>
        </mxCell>
        <mxCell id="SC9fLX6b7BTCBccmanfQ-39" value="" style="verticalLabelPosition=bottom;verticalAlign=top;html=1;strokeWidth=4;shape=mxgraph.flowchart.on-page_reference;strokeColor=#82b366;fillColor=#d5e8d4;" parent="6UTS02K1pKTTUHXM-cYw-1" vertex="1">
          <mxGeometry x="1425" y="551" width="30" height="30" as="geometry" />
        </mxCell>
        <mxCell id="SC9fLX6b7BTCBccmanfQ-40" value="" style="edgeStyle=orthogonalEdgeStyle;rounded=0;orthogonalLoop=1;jettySize=auto;html=1;fontFamily=Verdana;strokeWidth=4;strokeColor=default;endArrow=none;endFill=0;exitX=0;exitY=0.5;exitDx=0;exitDy=0;exitPerimeter=0;entryX=1;entryY=0.5;entryDx=0;entryDy=0;entryPerimeter=0;" parent="6UTS02K1pKTTUHXM-cYw-1" source="SC9fLX6b7BTCBccmanfQ-39" target="SC9fLX6b7BTCBccmanfQ-37" edge="1">
          <mxGeometry relative="1" as="geometry">
            <mxPoint x="1425" y="565.8899999999999" as="sourcePoint" />
            <mxPoint x="1375" y="565.8899999999999" as="targetPoint" />
          </mxGeometry>
        </mxCell>
        <mxCell id="SC9fLX6b7BTCBccmanfQ-41" value="Deploy" style="text;html=1;align=center;verticalAlign=middle;resizable=0;points=[];autosize=1;strokeColor=none;fillColor=none;fontFamily=Verdana;fontStyle=1" parent="6UTS02K1pKTTUHXM-cYw-1" vertex="1">
          <mxGeometry x="1245.53" y="581" width="70" height="30" as="geometry" />
        </mxCell>
        <mxCell id="SC9fLX6b7BTCBccmanfQ-42" value="PROD" style="text;html=1;strokeColor=none;fillColor=none;align=center;verticalAlign=middle;whiteSpace=wrap;overflow=hidden;fontSize=14;" parent="6UTS02K1pKTTUHXM-cYw-1" vertex="1">
          <mxGeometry x="1095" y="555.5" width="59.47" height="20" as="geometry" />
        </mxCell>
        <mxCell id="SC9fLX6b7BTCBccmanfQ-43" value="" style="edgeStyle=orthogonalEdgeStyle;rounded=0;orthogonalLoop=1;jettySize=auto;html=1;fontFamily=Verdana;strokeWidth=4;strokeColor=default;endArrow=none;endFill=0;entryX=1;entryY=0.5;entryDx=0;entryDy=0;entryPerimeter=0;" parent="6UTS02K1pKTTUHXM-cYw-1" target="SC9fLX6b7BTCBccmanfQ-39" edge="1">
          <mxGeometry relative="1" as="geometry">
            <mxPoint x="1520" y="566" as="sourcePoint" />
            <mxPoint x="1454.9999999999998" y="565.89" as="targetPoint" />
          </mxGeometry>
        </mxCell>
        <mxCell id="SC9fLX6b7BTCBccmanfQ-44" style="edgeStyle=orthogonalEdgeStyle;curved=1;rounded=0;html=1;endArrow=none;endFill=0;jettySize=auto;orthogonalLoop=1;strokeWidth=4;fontSize=15;exitX=0;exitY=0.5;exitDx=0;exitDy=0;exitPerimeter=0;entryX=1;entryY=0.5;entryDx=0;entryDy=0;entryPerimeter=0;" parent="6UTS02K1pKTTUHXM-cYw-1" source="SC9fLX6b7BTCBccmanfQ-34" target="6UTS02K1pKTTUHXM-cYw-50" edge="1">
          <mxGeometry relative="1" as="geometry">
            <mxPoint x="1090.53" y="724" as="sourcePoint" />
            <mxPoint x="1000" y="421" as="targetPoint" />
          </mxGeometry>
        </mxCell>
        <mxCell id="SC9fLX6b7BTCBccmanfQ-45" style="edgeStyle=orthogonalEdgeStyle;curved=1;rounded=0;html=1;exitX=1;exitY=0.5;exitPerimeter=0;endArrow=none;endFill=0;jettySize=auto;orthogonalLoop=1;strokeWidth=4;fontSize=15;startArrow=none;exitDx=0;exitDy=0;" parent="6UTS02K1pKTTUHXM-cYw-1" source="6UTS02K1pKTTUHXM-cYw-50" edge="1">
          <mxGeometry relative="1" as="geometry">
            <mxPoint x="1135" y="410.68" as="sourcePoint" />
            <mxPoint x="1520" y="411" as="targetPoint" />
          </mxGeometry>
        </mxCell>
        <mxCell id="UoXuiJUOd6vl25Bv2ZC2-71" value="" style="verticalLabelPosition=bottom;verticalAlign=top;html=1;strokeWidth=4;shape=mxgraph.flowchart.on-page_reference;strokeColor=#b85450;fillColor=#f8cecc;" parent="6UTS02K1pKTTUHXM-cYw-1" vertex="1">
          <mxGeometry x="1425" y="760.5" width="30" height="30" as="geometry" />
        </mxCell>
        <mxCell id="UoXuiJUOd6vl25Bv2ZC2-72" value="Terminate&lt;br&gt;Branch,&lt;br&gt;Deployment" style="text;html=1;align=center;verticalAlign=middle;resizable=0;points=[];autosize=1;strokeColor=none;fillColor=none;fontFamily=Verdana;fontStyle=1" parent="6UTS02K1pKTTUHXM-cYw-1" vertex="1">
          <mxGeometry x="1390" y="789" width="100" height="60" as="geometry" />
        </mxCell>
      </root>
    </mxGraphModel>
  </diagram>
  <diagram name="Final DevOps" id="kPsAOQsspYQXP3UWduK6">
    <mxGraphModel dx="2049" dy="1149" grid="1" gridSize="10" guides="1" tooltips="1" connect="1" arrows="1" fold="1" page="1" pageScale="1" pageWidth="1654" pageHeight="1169" math="0" shadow="0">
      <root>
        <mxCell id="iVyWCWukNCRstCAHuDUa-0" />
        <mxCell id="iVyWCWukNCRstCAHuDUa-1" parent="iVyWCWukNCRstCAHuDUa-0" />
        <mxCell id="3duSereRkKRvvA2WOEQ7-0" value="" style="group;movable=1;resizable=1;rotatable=1;deletable=1;editable=1;connectable=1;" vertex="1" connectable="0" parent="iVyWCWukNCRstCAHuDUa-1">
          <mxGeometry x="152" y="400" width="1349.5" height="370" as="geometry" />
        </mxCell>
        <mxCell id="3duSereRkKRvvA2WOEQ7-1" value="" style="whiteSpace=wrap;html=1;rounded=1;shadow=0;strokeColor=#FFB570;strokeWidth=2;fontFamily=Verdana;fillColor=none;" vertex="1" parent="3duSereRkKRvvA2WOEQ7-0">
          <mxGeometry x="301" y="220" width="238" height="150" as="geometry" />
        </mxCell>
        <mxCell id="3duSereRkKRvvA2WOEQ7-2" value="" style="whiteSpace=wrap;html=1;rounded=1;shadow=0;strokeColor=#CDA2BE;strokeWidth=2;fontFamily=Verdana;fillColor=none;" vertex="1" parent="3duSereRkKRvvA2WOEQ7-0">
          <mxGeometry x="121.13" y="93.5" width="178.87" height="133.5" as="geometry" />
        </mxCell>
        <mxCell id="3duSereRkKRvvA2WOEQ7-3" value="" style="verticalLabelPosition=bottom;verticalAlign=top;html=1;strokeWidth=4;shape=mxgraph.flowchart.on-page_reference;plain-blue;gradientColor=none;fillColor=#B5E3Fe;strokeColor=#000000;" vertex="1" parent="3duSereRkKRvvA2WOEQ7-0">
          <mxGeometry x="64.5" y="25" width="30" height="30" as="geometry" />
        </mxCell>
        <mxCell id="3duSereRkKRvvA2WOEQ7-4" value="" style="verticalLabelPosition=bottom;verticalAlign=top;html=1;strokeWidth=4;shape=mxgraph.flowchart.on-page_reference;plain-blue;gradientColor=none;strokeColor=#000000;" vertex="1" parent="3duSereRkKRvvA2WOEQ7-0">
          <mxGeometry x="630" y="25" width="30" height="30" as="geometry" />
        </mxCell>
        <mxCell id="3duSereRkKRvvA2WOEQ7-5" value="" style="edgeStyle=orthogonalEdgeStyle;rounded=0;html=1;jettySize=auto;orthogonalLoop=1;plain-blue;endArrow=none;endFill=0;strokeWidth=4;strokeColor=#000000;" edge="1" parent="3duSereRkKRvvA2WOEQ7-0" source="3duSereRkKRvvA2WOEQ7-3" target="3duSereRkKRvvA2WOEQ7-4">
          <mxGeometry x="134.5" y="40" as="geometry" />
        </mxCell>
        <mxCell id="3duSereRkKRvvA2WOEQ7-6" value="main" style="text;html=1;strokeColor=none;fillColor=none;align=center;verticalAlign=middle;whiteSpace=wrap;overflow=hidden;fontSize=14;fontStyle=1;fontFamily=Courier New;" vertex="1" parent="3duSereRkKRvvA2WOEQ7-0">
          <mxGeometry y="30" width="50" height="20" as="geometry" />
        </mxCell>
        <mxCell id="3duSereRkKRvvA2WOEQ7-7" value="" style="verticalLabelPosition=bottom;verticalAlign=top;html=1;strokeWidth=4;shape=mxgraph.flowchart.on-page_reference;plain-purple;gradientColor=none;strokeColor=#000000;" vertex="1" parent="3duSereRkKRvvA2WOEQ7-0">
          <mxGeometry x="145.5" y="145" width="30" height="30" as="geometry" />
        </mxCell>
        <mxCell id="3duSereRkKRvvA2WOEQ7-8" style="edgeStyle=orthogonalEdgeStyle;curved=1;rounded=0;html=1;exitX=1;exitY=0.5;exitPerimeter=0;entryX=0;entryY=0.5;entryPerimeter=0;endArrow=none;endFill=0;jettySize=auto;orthogonalLoop=1;strokeWidth=4;fontSize=15;" edge="1" parent="3duSereRkKRvvA2WOEQ7-0" source="3duSereRkKRvvA2WOEQ7-3" target="3duSereRkKRvvA2WOEQ7-7">
          <mxGeometry relative="1" as="geometry" />
        </mxCell>
        <mxCell id="3duSereRkKRvvA2WOEQ7-9" style="edgeStyle=orthogonalEdgeStyle;curved=1;rounded=0;html=1;exitX=1;exitY=0.5;exitPerimeter=0;entryX=0;entryY=0.5;entryPerimeter=0;endArrow=none;endFill=0;jettySize=auto;orthogonalLoop=1;strokeWidth=4;fontSize=15;exitDx=0;exitDy=0;" edge="1" parent="3duSereRkKRvvA2WOEQ7-0" source="3duSereRkKRvvA2WOEQ7-27" target="3duSereRkKRvvA2WOEQ7-4">
          <mxGeometry relative="1" as="geometry">
            <mxPoint x="631" y="120" as="sourcePoint" />
          </mxGeometry>
        </mxCell>
        <mxCell id="3duSereRkKRvvA2WOEQ7-10" value="" style="verticalLabelPosition=bottom;verticalAlign=top;html=1;strokeWidth=4;shape=mxgraph.flowchart.on-page_reference;plain-purple;gradientColor=none;strokeColor=#000000;" vertex="1" parent="3duSereRkKRvvA2WOEQ7-0">
          <mxGeometry x="245.5" y="145" width="30" height="30" as="geometry" />
        </mxCell>
        <mxCell id="3duSereRkKRvvA2WOEQ7-11" value="Create&lt;br&gt;New Branch" style="text;html=1;strokeColor=none;fillColor=none;align=right;verticalAlign=middle;whiteSpace=wrap;overflow=hidden;fontSize=14;fontStyle=1;fontFamily=Courier New;" vertex="1" parent="3duSereRkKRvvA2WOEQ7-0">
          <mxGeometry x="20" y="99" width="88.38" height="40" as="geometry" />
        </mxCell>
        <mxCell id="3duSereRkKRvvA2WOEQ7-12" value="&lt;font color=&quot;#b5739d&quot;&gt;Feature Request 12345&lt;/font&gt;" style="text;html=1;strokeColor=none;fillColor=none;align=center;verticalAlign=middle;whiteSpace=wrap;overflow=hidden;fontSize=14;fontStyle=0;fontColor=#009900;" vertex="1" parent="3duSereRkKRvvA2WOEQ7-0">
          <mxGeometry x="109.44" y="227" width="202.25" height="20" as="geometry" />
        </mxCell>
        <mxCell id="3duSereRkKRvvA2WOEQ7-13" value="Tag: 1.0.0" style="text;html=1;strokeColor=none;fillColor=none;align=center;verticalAlign=middle;whiteSpace=wrap;overflow=hidden;fontSize=14;" vertex="1" parent="3duSereRkKRvvA2WOEQ7-0">
          <mxGeometry x="88.38" width="70" height="20" as="geometry" />
        </mxCell>
        <mxCell id="3duSereRkKRvvA2WOEQ7-14" value="&lt;div style=&quot;&quot;&gt;Fast CI&lt;/div&gt;&lt;div style=&quot;&quot;&gt;Tests&lt;/div&gt;" style="text;html=1;strokeColor=none;fillColor=none;align=center;verticalAlign=middle;whiteSpace=wrap;overflow=hidden;fontSize=14;fontStyle=1;fontFamily=Verdana;shadow=1;" vertex="1" parent="3duSereRkKRvvA2WOEQ7-0">
          <mxGeometry x="172.25" y="187" width="75.5" height="40" as="geometry" />
        </mxCell>
        <mxCell id="3duSereRkKRvvA2WOEQ7-15" value="&lt;div style=&quot;&quot;&gt;CI PIPELINE&lt;/div&gt;" style="text;html=1;strokeColor=none;fillColor=none;align=center;verticalAlign=middle;whiteSpace=wrap;overflow=hidden;fontSize=14;fontStyle=1;fontFamily=Verdana;shadow=1;" vertex="1" parent="3duSereRkKRvvA2WOEQ7-0">
          <mxGeometry x="367.25" y="330" width="105.5" height="40" as="geometry" />
        </mxCell>
        <mxCell id="3duSereRkKRvvA2WOEQ7-16" style="edgeStyle=orthogonalEdgeStyle;curved=1;rounded=0;html=1;entryX=1;entryY=0.5;entryPerimeter=0;endArrow=none;endFill=0;jettySize=auto;orthogonalLoop=1;strokeWidth=4;fontSize=15;entryDx=0;entryDy=0;exitX=0;exitY=0.5;exitDx=0;exitDy=0;exitPerimeter=0;" edge="1" parent="3duSereRkKRvvA2WOEQ7-0" source="3duSereRkKRvvA2WOEQ7-23" target="3duSereRkKRvvA2WOEQ7-10">
          <mxGeometry relative="1" as="geometry">
            <mxPoint x="321" y="244.0000000000001" as="sourcePoint" />
            <mxPoint x="341.5" y="209" as="targetPoint" />
          </mxGeometry>
        </mxCell>
        <mxCell id="3duSereRkKRvvA2WOEQ7-17" value="" style="verticalLabelPosition=bottom;verticalAlign=top;html=1;strokeWidth=4;shape=mxgraph.flowchart.on-page_reference;plain-purple;gradientColor=none;strokeColor=#000000;" vertex="1" parent="3duSereRkKRvvA2WOEQ7-0">
          <mxGeometry x="195" y="145" width="30" height="30" as="geometry" />
        </mxCell>
        <mxCell id="3duSereRkKRvvA2WOEQ7-18" style="edgeStyle=orthogonalEdgeStyle;curved=1;rounded=0;html=1;exitX=1;exitY=0.5;exitPerimeter=0;entryX=0;entryY=0.5;entryPerimeter=0;endArrow=none;endFill=0;jettySize=auto;orthogonalLoop=1;strokeWidth=4;fontSize=15;entryDx=0;entryDy=0;startArrow=none;" edge="1" parent="3duSereRkKRvvA2WOEQ7-0" source="3duSereRkKRvvA2WOEQ7-17" target="3duSereRkKRvvA2WOEQ7-10">
          <mxGeometry relative="1" as="geometry">
            <mxPoint x="189.5" y="160" as="targetPoint" />
          </mxGeometry>
        </mxCell>
        <mxCell id="3duSereRkKRvvA2WOEQ7-19" value="" style="edgeStyle=orthogonalEdgeStyle;curved=1;rounded=0;html=1;exitX=1;exitY=0.5;exitPerimeter=0;entryX=0;entryY=0.5;entryPerimeter=0;endArrow=none;endFill=0;jettySize=auto;orthogonalLoop=1;strokeWidth=4;fontSize=15;entryDx=0;entryDy=0;" edge="1" parent="3duSereRkKRvvA2WOEQ7-0" source="3duSereRkKRvvA2WOEQ7-7" target="3duSereRkKRvvA2WOEQ7-17">
          <mxGeometry relative="1" as="geometry">
            <mxPoint x="177.5" y="160" as="sourcePoint" />
            <mxPoint x="292.5" y="160" as="targetPoint" />
          </mxGeometry>
        </mxCell>
        <mxCell id="3duSereRkKRvvA2WOEQ7-20" value="&lt;div style=&quot;&quot;&gt;Multiple Commits&lt;br&gt;&lt;/div&gt;" style="text;html=1;strokeColor=none;fillColor=none;align=center;verticalAlign=middle;whiteSpace=wrap;overflow=hidden;fontSize=14;fontStyle=0;fontFamily=Verdana;shadow=1;" vertex="1" parent="3duSereRkKRvvA2WOEQ7-0">
          <mxGeometry x="125.56" y="93.5" width="170" height="40" as="geometry" />
        </mxCell>
        <mxCell id="3duSereRkKRvvA2WOEQ7-21" value="Build" style="text;html=1;align=center;verticalAlign=middle;resizable=0;points=[];autosize=1;strokeColor=none;fillColor=none;fontFamily=Verdana;fontStyle=1" vertex="1" parent="3duSereRkKRvvA2WOEQ7-0">
          <mxGeometry x="310" y="294" width="60" height="30" as="geometry" />
        </mxCell>
        <mxCell id="3duSereRkKRvvA2WOEQ7-22" value="Test" style="text;html=1;align=center;verticalAlign=middle;resizable=0;points=[];autosize=1;strokeColor=none;fillColor=none;fontFamily=Verdana;fontStyle=1" vertex="1" parent="3duSereRkKRvvA2WOEQ7-0">
          <mxGeometry x="365" y="294" width="50" height="30" as="geometry" />
        </mxCell>
        <mxCell id="3duSereRkKRvvA2WOEQ7-23" value="" style="verticalLabelPosition=bottom;verticalAlign=top;html=1;strokeWidth=4;shape=mxgraph.flowchart.on-page_reference;strokeColor=#000000;fillColor=#ffe6cc;" vertex="1" parent="3duSereRkKRvvA2WOEQ7-0">
          <mxGeometry x="325" y="264" width="30" height="30" as="geometry" />
        </mxCell>
        <mxCell id="3duSereRkKRvvA2WOEQ7-24" value="" style="edgeStyle=orthogonalEdgeStyle;rounded=0;orthogonalLoop=1;jettySize=auto;html=1;fontFamily=Verdana;strokeWidth=4;strokeColor=default;endArrow=none;endFill=0;exitX=0;exitY=0.5;exitDx=0;exitDy=0;exitPerimeter=0;entryX=1;entryY=0.5;entryDx=0;entryDy=0;entryPerimeter=0;" edge="1" parent="3duSereRkKRvvA2WOEQ7-0" source="3duSereRkKRvvA2WOEQ7-25" target="3duSereRkKRvvA2WOEQ7-23">
          <mxGeometry relative="1" as="geometry">
            <mxPoint x="409" y="279" as="sourcePoint" />
          </mxGeometry>
        </mxCell>
        <mxCell id="3duSereRkKRvvA2WOEQ7-25" value="" style="verticalLabelPosition=bottom;verticalAlign=top;html=1;strokeWidth=4;shape=mxgraph.flowchart.on-page_reference;strokeColor=#000000;fillColor=#ffe6cc;" vertex="1" parent="3duSereRkKRvvA2WOEQ7-0">
          <mxGeometry x="375" y="264" width="30" height="30" as="geometry" />
        </mxCell>
        <mxCell id="3duSereRkKRvvA2WOEQ7-26" style="edgeStyle=orthogonalEdgeStyle;curved=1;rounded=0;html=1;exitX=1;exitY=0.5;exitPerimeter=0;entryX=0;entryY=0.5;entryPerimeter=0;endArrow=none;endFill=0;jettySize=auto;orthogonalLoop=1;strokeWidth=4;fontSize=15;entryDx=0;entryDy=0;startArrow=none;exitDx=0;exitDy=0;" edge="1" parent="3duSereRkKRvvA2WOEQ7-0" source="3duSereRkKRvvA2WOEQ7-10" target="3duSereRkKRvvA2WOEQ7-27">
          <mxGeometry relative="1" as="geometry">
            <mxPoint x="316.5" y="160" as="sourcePoint" />
            <mxPoint x="366" y="160" as="targetPoint" />
          </mxGeometry>
        </mxCell>
        <mxCell id="3duSereRkKRvvA2WOEQ7-27" value="" style="verticalLabelPosition=bottom;verticalAlign=top;html=1;strokeWidth=4;shape=mxgraph.flowchart.on-page_reference;plain-purple;gradientColor=none;strokeColor=#000000;" vertex="1" parent="3duSereRkKRvvA2WOEQ7-0">
          <mxGeometry x="553" y="145" width="30" height="30" as="geometry" />
        </mxCell>
        <mxCell id="3duSereRkKRvvA2WOEQ7-28" style="edgeStyle=orthogonalEdgeStyle;curved=1;rounded=0;html=1;endArrow=none;endFill=0;jettySize=auto;orthogonalLoop=1;strokeWidth=4;fontSize=15;exitX=1;exitY=0.5;exitDx=0;exitDy=0;exitPerimeter=0;entryX=0;entryY=0.5;entryDx=0;entryDy=0;entryPerimeter=0;" edge="1" parent="3duSereRkKRvvA2WOEQ7-0" target="3duSereRkKRvvA2WOEQ7-27">
          <mxGeometry relative="1" as="geometry">
            <mxPoint x="505" y="280" as="sourcePoint" />
            <mxPoint x="573" y="160" as="targetPoint" />
          </mxGeometry>
        </mxCell>
        <mxCell id="3duSereRkKRvvA2WOEQ7-29" value="" style="whiteSpace=wrap;html=1;rounded=1;shadow=0;strokeColor=#FFB570;strokeWidth=2;fontFamily=Verdana;fillColor=none;" vertex="1" parent="3duSereRkKRvvA2WOEQ7-0">
          <mxGeometry x="690" y="94" width="227" height="150" as="geometry" />
        </mxCell>
        <mxCell id="3duSereRkKRvvA2WOEQ7-30" value="&lt;div style=&quot;&quot;&gt;CD PIPELINE&lt;/div&gt;" style="text;html=1;strokeColor=none;fillColor=none;align=center;verticalAlign=middle;whiteSpace=wrap;overflow=hidden;fontSize=14;fontStyle=1;fontFamily=Verdana;shadow=1;" vertex="1" parent="3duSereRkKRvvA2WOEQ7-0">
          <mxGeometry x="750.75" y="204" width="105.5" height="40" as="geometry" />
        </mxCell>
        <mxCell id="3duSereRkKRvvA2WOEQ7-31" style="edgeStyle=orthogonalEdgeStyle;curved=1;rounded=0;html=1;endArrow=none;endFill=0;jettySize=auto;orthogonalLoop=1;strokeWidth=4;fontSize=15;exitX=0;exitY=0.5;exitDx=0;exitDy=0;exitPerimeter=0;entryX=1;entryY=0.5;entryDx=0;entryDy=0;entryPerimeter=0;" edge="1" parent="3duSereRkKRvvA2WOEQ7-0" source="3duSereRkKRvvA2WOEQ7-34" target="3duSereRkKRvvA2WOEQ7-4">
          <mxGeometry relative="1" as="geometry">
            <mxPoint x="704.53" y="124.00000000000011" as="sourcePoint" />
            <mxPoint x="659" y="40" as="targetPoint" />
          </mxGeometry>
        </mxCell>
        <mxCell id="3duSereRkKRvvA2WOEQ7-32" value="Test" style="text;html=1;align=center;verticalAlign=middle;resizable=0;points=[];autosize=1;strokeColor=none;fillColor=none;fontFamily=Verdana;fontStyle=1" vertex="1" parent="3duSereRkKRvvA2WOEQ7-0">
          <mxGeometry x="750.53" y="174" width="50" height="30" as="geometry" />
        </mxCell>
        <mxCell id="3duSereRkKRvvA2WOEQ7-34" value="" style="verticalLabelPosition=bottom;verticalAlign=top;html=1;strokeWidth=4;shape=mxgraph.flowchart.on-page_reference;strokeColor=#000000;fillColor=#ffe6cc;" vertex="1" parent="3duSereRkKRvvA2WOEQ7-0">
          <mxGeometry x="707.53" y="144" width="30" height="30" as="geometry" />
        </mxCell>
        <mxCell id="3duSereRkKRvvA2WOEQ7-35" value="" style="edgeStyle=orthogonalEdgeStyle;rounded=0;orthogonalLoop=1;jettySize=auto;html=1;fontFamily=Verdana;strokeWidth=4;strokeColor=default;endArrow=none;endFill=0;exitX=0;exitY=0.5;exitDx=0;exitDy=0;exitPerimeter=0;entryX=1;entryY=0.5;entryDx=0;entryDy=0;entryPerimeter=0;" edge="1" parent="3duSereRkKRvvA2WOEQ7-0" source="3duSereRkKRvvA2WOEQ7-36" target="3duSereRkKRvvA2WOEQ7-34">
          <mxGeometry relative="1" as="geometry">
            <mxPoint x="792.53" y="159" as="sourcePoint" />
          </mxGeometry>
        </mxCell>
        <mxCell id="3duSereRkKRvvA2WOEQ7-36" value="" style="verticalLabelPosition=bottom;verticalAlign=top;html=1;strokeWidth=4;shape=mxgraph.flowchart.on-page_reference;strokeColor=#000000;fillColor=#ffe6cc;" vertex="1" parent="3duSereRkKRvvA2WOEQ7-0">
          <mxGeometry x="760.53" y="144" width="30" height="30" as="geometry" />
        </mxCell>
        <mxCell id="3duSereRkKRvvA2WOEQ7-38" value="" style="edgeStyle=orthogonalEdgeStyle;rounded=0;orthogonalLoop=1;jettySize=auto;html=1;fontFamily=Verdana;strokeWidth=4;strokeColor=default;endArrow=none;endFill=0;exitX=0;exitY=0.5;exitDx=0;exitDy=0;exitPerimeter=0;entryX=1;entryY=0.5;entryDx=0;entryDy=0;entryPerimeter=0;" edge="1" parent="3duSereRkKRvvA2WOEQ7-0" source="3duSereRkKRvvA2WOEQ7-40" target="3duSereRkKRvvA2WOEQ7-36">
          <mxGeometry relative="1" as="geometry">
            <mxPoint x="812.53" y="159" as="sourcePoint" />
            <mxPoint x="789.53" y="158.86" as="targetPoint" />
          </mxGeometry>
        </mxCell>
        <mxCell id="3duSereRkKRvvA2WOEQ7-39" value="Review,&lt;br&gt;Approvals" style="text;html=1;align=center;verticalAlign=middle;resizable=0;points=[];autosize=1;strokeColor=none;fillColor=none;fontFamily=Verdana;fontStyle=1" vertex="1" parent="3duSereRkKRvvA2WOEQ7-0">
          <mxGeometry x="523" y="180" width="90" height="40" as="geometry" />
        </mxCell>
        <mxCell id="3duSereRkKRvvA2WOEQ7-40" value="" style="verticalLabelPosition=bottom;verticalAlign=top;html=1;strokeWidth=4;shape=mxgraph.flowchart.on-page_reference;strokeColor=#000000;fillColor=#ffe6cc;" vertex="1" parent="3duSereRkKRvvA2WOEQ7-0">
          <mxGeometry x="868" y="144" width="30" height="30" as="geometry" />
        </mxCell>
        <mxCell id="3duSereRkKRvvA2WOEQ7-42" value="Deploy" style="text;html=1;align=center;verticalAlign=middle;resizable=0;points=[];autosize=1;strokeColor=none;fillColor=none;fontFamily=Verdana;fontStyle=1" vertex="1" parent="3duSereRkKRvvA2WOEQ7-0">
          <mxGeometry x="687.53" y="174" width="70" height="30" as="geometry" />
        </mxCell>
        <mxCell id="3duSereRkKRvvA2WOEQ7-43" value="Tag: 1.0.1-Dev" style="text;html=1;strokeColor=none;fillColor=none;align=center;verticalAlign=middle;whiteSpace=wrap;overflow=hidden;fontSize=14;" vertex="1" parent="3duSereRkKRvvA2WOEQ7-0">
          <mxGeometry x="592.5" width="105" height="20" as="geometry" />
        </mxCell>
        <mxCell id="3duSereRkKRvvA2WOEQ7-44" style="edgeStyle=orthogonalEdgeStyle;curved=1;rounded=0;html=1;exitX=1;exitY=0.5;exitPerimeter=0;entryX=0;entryY=0.5;entryPerimeter=0;endArrow=none;endFill=0;jettySize=auto;orthogonalLoop=1;strokeWidth=4;fontSize=15;entryDx=0;entryDy=0;startArrow=none;exitDx=0;exitDy=0;" edge="1" parent="3duSereRkKRvvA2WOEQ7-0" target="3duSereRkKRvvA2WOEQ7-45">
          <mxGeometry relative="1" as="geometry">
            <mxPoint x="659" y="40" as="sourcePoint" />
            <mxPoint x="1029.78" y="39.29000000000002" as="targetPoint" />
          </mxGeometry>
        </mxCell>
        <mxCell id="3duSereRkKRvvA2WOEQ7-45" value="" style="verticalLabelPosition=bottom;verticalAlign=top;html=1;strokeWidth=4;shape=mxgraph.flowchart.on-page_reference;plain-purple;gradientColor=none;strokeColor=#000000;fillColor=#CCE5FF;" vertex="1" parent="3duSereRkKRvvA2WOEQ7-0">
          <mxGeometry x="946" y="25" width="30" height="30" as="geometry" />
        </mxCell>
        <mxCell id="3duSereRkKRvvA2WOEQ7-46" style="edgeStyle=orthogonalEdgeStyle;curved=1;rounded=0;html=1;endArrow=none;endFill=0;jettySize=auto;orthogonalLoop=1;strokeWidth=4;fontSize=15;entryX=0;entryY=0.5;entryDx=0;entryDy=0;entryPerimeter=0;exitX=1;exitY=0.5;exitDx=0;exitDy=0;exitPerimeter=0;" edge="1" parent="3duSereRkKRvvA2WOEQ7-0" source="3duSereRkKRvvA2WOEQ7-40" target="3duSereRkKRvvA2WOEQ7-45">
          <mxGeometry relative="1" as="geometry">
            <mxPoint x="900" y="159" as="sourcePoint" />
            <mxPoint x="987" y="40" as="targetPoint" />
          </mxGeometry>
        </mxCell>
        <mxCell id="3duSereRkKRvvA2WOEQ7-47" value="Pull Request" style="text;html=1;align=center;verticalAlign=middle;resizable=0;points=[];autosize=1;strokeColor=none;fillColor=none;fontFamily=Verdana;fontStyle=1" vertex="1" parent="3duSereRkKRvvA2WOEQ7-0">
          <mxGeometry x="365" y="220" width="110" height="30" as="geometry" />
        </mxCell>
        <mxCell id="3duSereRkKRvvA2WOEQ7-48" value="Deploy to Development" style="text;html=1;align=center;verticalAlign=middle;resizable=0;points=[];autosize=1;strokeColor=none;fillColor=none;fontFamily=Verdana;fontStyle=1" vertex="1" parent="3duSereRkKRvvA2WOEQ7-0">
          <mxGeometry x="713.5" y="93.5" width="180" height="30" as="geometry" />
        </mxCell>
        <mxCell id="3duSereRkKRvvA2WOEQ7-49" value="Review,&lt;br&gt;Approvals" style="text;html=1;align=center;verticalAlign=middle;resizable=0;points=[];autosize=1;strokeColor=none;fillColor=none;fontFamily=Verdana;fontStyle=1" vertex="1" parent="3duSereRkKRvvA2WOEQ7-0">
          <mxGeometry x="916" y="59" width="90" height="40" as="geometry" />
        </mxCell>
        <mxCell id="3duSereRkKRvvA2WOEQ7-50" value="Code&lt;br&gt;Quality" style="text;html=1;align=center;verticalAlign=middle;resizable=0;points=[];autosize=1;strokeColor=none;fillColor=none;fontFamily=Verdana;fontStyle=1" vertex="1" parent="3duSereRkKRvvA2WOEQ7-0">
          <mxGeometry x="405" y="297" width="70" height="40" as="geometry" />
        </mxCell>
        <mxCell id="3duSereRkKRvvA2WOEQ7-51" value="" style="verticalLabelPosition=bottom;verticalAlign=top;html=1;strokeWidth=4;shape=mxgraph.flowchart.on-page_reference;strokeColor=#000000;fillColor=#ffe6cc;" vertex="1" parent="3duSereRkKRvvA2WOEQ7-0">
          <mxGeometry x="425" y="265" width="30" height="30" as="geometry" />
        </mxCell>
        <mxCell id="3duSereRkKRvvA2WOEQ7-52" value="" style="edgeStyle=orthogonalEdgeStyle;rounded=0;orthogonalLoop=1;jettySize=auto;html=1;fontFamily=Verdana;strokeWidth=4;strokeColor=default;endArrow=none;endFill=0;exitX=0;exitY=0.5;exitDx=0;exitDy=0;exitPerimeter=0;entryX=1;entryY=0.5;entryDx=0;entryDy=0;entryPerimeter=0;" edge="1" parent="3duSereRkKRvvA2WOEQ7-0" source="3duSereRkKRvvA2WOEQ7-51">
          <mxGeometry relative="1" as="geometry">
            <mxPoint x="266" y="-120.13999999999999" as="sourcePoint" />
            <mxPoint x="405" y="280" as="targetPoint" />
          </mxGeometry>
        </mxCell>
        <mxCell id="3duSereRkKRvvA2WOEQ7-54" value="" style="edgeStyle=orthogonalEdgeStyle;rounded=0;orthogonalLoop=1;jettySize=auto;html=1;fontFamily=Verdana;strokeWidth=4;strokeColor=default;endArrow=none;endFill=0;entryX=1;entryY=0.5;entryDx=0;entryDy=0;entryPerimeter=0;" edge="1" parent="3duSereRkKRvvA2WOEQ7-0" target="3duSereRkKRvvA2WOEQ7-51">
          <mxGeometry relative="1" as="geometry">
            <mxPoint x="508" y="280" as="sourcePoint" />
            <mxPoint x="274" y="-120.00000000000011" as="targetPoint" />
          </mxGeometry>
        </mxCell>
        <mxCell id="3duSereRkKRvvA2WOEQ7-56" value="Release" style="text;html=1;align=center;verticalAlign=middle;resizable=0;points=[];autosize=1;strokeColor=none;fillColor=none;fontFamily=Verdana;fontStyle=1" vertex="1" parent="3duSereRkKRvvA2WOEQ7-0">
          <mxGeometry x="843" y="174" width="80" height="30" as="geometry" />
        </mxCell>
        <mxCell id="3duSereRkKRvvA2WOEQ7-57" value="" style="whiteSpace=wrap;html=1;rounded=1;shadow=0;strokeColor=#FFB570;strokeWidth=2;fontFamily=Verdana;fillColor=none;" vertex="1" parent="3duSereRkKRvvA2WOEQ7-0">
          <mxGeometry x="1009" y="94" width="226" height="150" as="geometry" />
        </mxCell>
        <mxCell id="3duSereRkKRvvA2WOEQ7-58" value="&lt;div style=&quot;&quot;&gt;CD PIPELINE&lt;/div&gt;" style="text;html=1;strokeColor=none;fillColor=none;align=center;verticalAlign=middle;whiteSpace=wrap;overflow=hidden;fontSize=14;fontStyle=1;fontFamily=Verdana;shadow=1;" vertex="1" parent="3duSereRkKRvvA2WOEQ7-0">
          <mxGeometry x="1069.25" y="204" width="105.5" height="40" as="geometry" />
        </mxCell>
        <mxCell id="3duSereRkKRvvA2WOEQ7-59" style="edgeStyle=orthogonalEdgeStyle;curved=1;rounded=0;html=1;endArrow=none;endFill=0;jettySize=auto;orthogonalLoop=1;strokeWidth=4;fontSize=15;exitX=0;exitY=0.5;exitDx=0;exitDy=0;exitPerimeter=0;entryX=1;entryY=0.5;entryDx=0;entryDy=0;entryPerimeter=0;" edge="1" parent="3duSereRkKRvvA2WOEQ7-0" source="3duSereRkKRvvA2WOEQ7-62" target="3duSereRkKRvvA2WOEQ7-45">
          <mxGeometry relative="1" as="geometry">
            <mxPoint x="1221.53" y="-295.9999999999999" as="sourcePoint" />
            <mxPoint x="977" y="40" as="targetPoint" />
          </mxGeometry>
        </mxCell>
        <mxCell id="3duSereRkKRvvA2WOEQ7-60" value="Test" style="text;html=1;align=center;verticalAlign=middle;resizable=0;points=[];autosize=1;strokeColor=none;fillColor=none;fontFamily=Verdana;fontStyle=1" vertex="1" parent="3duSereRkKRvvA2WOEQ7-0">
          <mxGeometry x="1068.53" y="174" width="50" height="30" as="geometry" />
        </mxCell>
        <mxCell id="3duSereRkKRvvA2WOEQ7-62" value="" style="verticalLabelPosition=bottom;verticalAlign=top;html=1;strokeWidth=4;shape=mxgraph.flowchart.on-page_reference;strokeColor=#000000;fillColor=#ffe6cc;" vertex="1" parent="3duSereRkKRvvA2WOEQ7-0">
          <mxGeometry x="1025.53" y="144" width="30" height="30" as="geometry" />
        </mxCell>
        <mxCell id="3duSereRkKRvvA2WOEQ7-63" value="" style="edgeStyle=orthogonalEdgeStyle;rounded=0;orthogonalLoop=1;jettySize=auto;html=1;fontFamily=Verdana;strokeWidth=4;strokeColor=default;endArrow=none;endFill=0;exitX=0;exitY=0.5;exitDx=0;exitDy=0;exitPerimeter=0;entryX=1;entryY=0.5;entryDx=0;entryDy=0;entryPerimeter=0;" edge="1" parent="3duSereRkKRvvA2WOEQ7-0" source="3duSereRkKRvvA2WOEQ7-64" target="3duSereRkKRvvA2WOEQ7-62">
          <mxGeometry relative="1" as="geometry">
            <mxPoint x="1310.53" y="-261" as="sourcePoint" />
          </mxGeometry>
        </mxCell>
        <mxCell id="3duSereRkKRvvA2WOEQ7-64" value="" style="verticalLabelPosition=bottom;verticalAlign=top;html=1;strokeWidth=4;shape=mxgraph.flowchart.on-page_reference;strokeColor=#000000;fillColor=#ffe6cc;" vertex="1" parent="3duSereRkKRvvA2WOEQ7-0">
          <mxGeometry x="1078.53" y="144" width="30" height="30" as="geometry" />
        </mxCell>
        <mxCell id="3duSereRkKRvvA2WOEQ7-66" value="" style="edgeStyle=orthogonalEdgeStyle;rounded=0;orthogonalLoop=1;jettySize=auto;html=1;fontFamily=Verdana;strokeWidth=4;strokeColor=default;endArrow=none;endFill=0;exitX=0;exitY=0.5;exitDx=0;exitDy=0;exitPerimeter=0;entryX=1;entryY=0.5;entryDx=0;entryDy=0;entryPerimeter=0;" edge="1" parent="3duSereRkKRvvA2WOEQ7-0" source="3duSereRkKRvvA2WOEQ7-67" target="3duSereRkKRvvA2WOEQ7-64">
          <mxGeometry relative="1" as="geometry">
            <mxPoint x="1130.53" y="159" as="sourcePoint" />
            <mxPoint x="1307.53" y="-261.14" as="targetPoint" />
          </mxGeometry>
        </mxCell>
        <mxCell id="3duSereRkKRvvA2WOEQ7-67" value="" style="verticalLabelPosition=bottom;verticalAlign=top;html=1;strokeWidth=4;shape=mxgraph.flowchart.on-page_reference;strokeColor=#000000;fillColor=#ffe6cc;" vertex="1" parent="3duSereRkKRvvA2WOEQ7-0">
          <mxGeometry x="1186" y="144" width="30" height="30" as="geometry" />
        </mxCell>
        <mxCell id="3duSereRkKRvvA2WOEQ7-69" value="Deploy" style="text;html=1;align=center;verticalAlign=middle;resizable=0;points=[];autosize=1;strokeColor=none;fillColor=none;fontFamily=Verdana;fontStyle=1" vertex="1" parent="3duSereRkKRvvA2WOEQ7-0">
          <mxGeometry x="1005.53" y="174" width="70" height="30" as="geometry" />
        </mxCell>
        <mxCell id="3duSereRkKRvvA2WOEQ7-70" style="edgeStyle=orthogonalEdgeStyle;curved=1;rounded=0;html=1;exitX=1;exitY=0.5;exitPerimeter=0;entryX=0;entryY=0.5;entryPerimeter=0;endArrow=none;endFill=0;jettySize=auto;orthogonalLoop=1;strokeWidth=4;fontSize=15;entryDx=0;entryDy=0;startArrow=none;exitDx=0;exitDy=0;" edge="1" parent="3duSereRkKRvvA2WOEQ7-0" source="3duSereRkKRvvA2WOEQ7-45" target="3duSereRkKRvvA2WOEQ7-71">
          <mxGeometry relative="1" as="geometry">
            <mxPoint x="976" y="40" as="sourcePoint" />
            <mxPoint x="1546.78" y="-380.71" as="targetPoint" />
          </mxGeometry>
        </mxCell>
        <mxCell id="3duSereRkKRvvA2WOEQ7-71" value="" style="verticalLabelPosition=bottom;verticalAlign=top;html=1;strokeWidth=4;shape=mxgraph.flowchart.on-page_reference;plain-purple;gradientColor=none;strokeColor=#000000;fillColor=#CCE5FF;" vertex="1" parent="3duSereRkKRvvA2WOEQ7-0">
          <mxGeometry x="1267" y="25" width="30" height="30" as="geometry" />
        </mxCell>
        <mxCell id="3duSereRkKRvvA2WOEQ7-72" style="edgeStyle=orthogonalEdgeStyle;curved=1;rounded=0;html=1;endArrow=none;endFill=0;jettySize=auto;orthogonalLoop=1;strokeWidth=4;fontSize=15;entryX=0;entryY=0.5;entryDx=0;entryDy=0;entryPerimeter=0;exitX=1;exitY=0.5;exitDx=0;exitDy=0;exitPerimeter=0;" edge="1" parent="3duSereRkKRvvA2WOEQ7-0" source="3duSereRkKRvvA2WOEQ7-67" target="3duSereRkKRvvA2WOEQ7-71">
          <mxGeometry relative="1" as="geometry">
            <mxPoint x="1215" y="159" as="sourcePoint" />
            <mxPoint x="1505" y="-380" as="targetPoint" />
          </mxGeometry>
        </mxCell>
        <mxCell id="3duSereRkKRvvA2WOEQ7-73" value="Deploy to Production" style="text;html=1;align=center;verticalAlign=middle;resizable=0;points=[];autosize=1;strokeColor=none;fillColor=none;fontFamily=Verdana;fontStyle=1" vertex="1" parent="3duSereRkKRvvA2WOEQ7-0">
          <mxGeometry x="1037" y="94" width="170" height="30" as="geometry" />
        </mxCell>
        <mxCell id="3duSereRkKRvvA2WOEQ7-74" value="Review,&lt;br&gt;Approvals" style="text;html=1;align=center;verticalAlign=middle;resizable=0;points=[];autosize=1;strokeColor=none;fillColor=none;fontFamily=Verdana;fontStyle=1" vertex="1" parent="3duSereRkKRvvA2WOEQ7-0">
          <mxGeometry x="1237" y="59" width="90" height="40" as="geometry" />
        </mxCell>
        <mxCell id="3duSereRkKRvvA2WOEQ7-75" value="Release" style="text;html=1;align=center;verticalAlign=middle;resizable=0;points=[];autosize=1;strokeColor=none;fillColor=none;fontFamily=Verdana;fontStyle=1" vertex="1" parent="3duSereRkKRvvA2WOEQ7-0">
          <mxGeometry x="1161" y="174" width="80" height="30" as="geometry" />
        </mxCell>
        <mxCell id="3duSereRkKRvvA2WOEQ7-76" value="Tag: 1.0.1" style="text;html=1;strokeColor=none;fillColor=none;align=center;verticalAlign=middle;whiteSpace=wrap;overflow=hidden;fontSize=14;" vertex="1" parent="3duSereRkKRvvA2WOEQ7-0">
          <mxGeometry x="1229.5" width="105" height="20" as="geometry" />
        </mxCell>
      </root>
    </mxGraphModel>
  </diagram>
  <diagram id="acxAxCWTVPjPY-ndEWlM" name="Final DevSecOps">
    <mxGraphModel dx="1593" dy="893" grid="1" gridSize="10" guides="1" tooltips="1" connect="1" arrows="1" fold="1" page="1" pageScale="1" pageWidth="1654" pageHeight="1169" math="0" shadow="0">
      <root>
        <mxCell id="0" />
        <mxCell id="1" parent="0" />
        <mxCell id="Dmn8jD3YtfsRe97owfsg-19" value="" style="group;movable=1;resizable=1;rotatable=1;deletable=1;editable=1;connectable=1;" parent="1" vertex="1" connectable="0">
          <mxGeometry x="152" y="400" width="1349.5" height="370" as="geometry" />
        </mxCell>
        <mxCell id="U4-2aKQdihpznest0NCg-1" value="" style="whiteSpace=wrap;html=1;rounded=1;shadow=0;strokeColor=#FFB570;strokeWidth=2;fontFamily=Verdana;fillColor=none;" parent="Dmn8jD3YtfsRe97owfsg-19" vertex="1">
          <mxGeometry x="301" y="220" width="238" height="150" as="geometry" />
        </mxCell>
        <mxCell id="U4-2aKQdihpznest0NCg-2" value="" style="whiteSpace=wrap;html=1;rounded=1;shadow=0;strokeColor=#CDA2BE;strokeWidth=2;fontFamily=Verdana;fillColor=none;" parent="Dmn8jD3YtfsRe97owfsg-19" vertex="1">
          <mxGeometry x="121.13" y="93.5" width="178.87" height="133.5" as="geometry" />
        </mxCell>
        <mxCell id="U4-2aKQdihpznest0NCg-5" value="" style="verticalLabelPosition=bottom;verticalAlign=top;html=1;strokeWidth=4;shape=mxgraph.flowchart.on-page_reference;plain-blue;gradientColor=none;fillColor=#B5E3Fe;strokeColor=#000000;" parent="Dmn8jD3YtfsRe97owfsg-19" vertex="1">
          <mxGeometry x="64.5" y="25" width="30" height="30" as="geometry" />
        </mxCell>
        <mxCell id="U4-2aKQdihpznest0NCg-6" value="" style="verticalLabelPosition=bottom;verticalAlign=top;html=1;strokeWidth=4;shape=mxgraph.flowchart.on-page_reference;plain-blue;gradientColor=none;strokeColor=#000000;" parent="Dmn8jD3YtfsRe97owfsg-19" vertex="1">
          <mxGeometry x="630" y="25" width="30" height="30" as="geometry" />
        </mxCell>
        <mxCell id="U4-2aKQdihpznest0NCg-3" value="" style="edgeStyle=orthogonalEdgeStyle;rounded=0;html=1;jettySize=auto;orthogonalLoop=1;plain-blue;endArrow=none;endFill=0;strokeWidth=4;strokeColor=#000000;" parent="Dmn8jD3YtfsRe97owfsg-19" source="U4-2aKQdihpznest0NCg-5" target="U4-2aKQdihpznest0NCg-6" edge="1">
          <mxGeometry x="134.5" y="40" as="geometry" />
        </mxCell>
        <mxCell id="U4-2aKQdihpznest0NCg-7" value="main" style="text;html=1;strokeColor=none;fillColor=none;align=center;verticalAlign=middle;whiteSpace=wrap;overflow=hidden;fontSize=14;fontStyle=1;fontFamily=Courier New;" parent="Dmn8jD3YtfsRe97owfsg-19" vertex="1">
          <mxGeometry y="30" width="50" height="20" as="geometry" />
        </mxCell>
        <mxCell id="U4-2aKQdihpznest0NCg-9" value="" style="verticalLabelPosition=bottom;verticalAlign=top;html=1;strokeWidth=4;shape=mxgraph.flowchart.on-page_reference;plain-purple;gradientColor=none;strokeColor=#000000;" parent="Dmn8jD3YtfsRe97owfsg-19" vertex="1">
          <mxGeometry x="145.5" y="145" width="30" height="30" as="geometry" />
        </mxCell>
        <mxCell id="U4-2aKQdihpznest0NCg-4" style="edgeStyle=orthogonalEdgeStyle;curved=1;rounded=0;html=1;exitX=1;exitY=0.5;exitPerimeter=0;entryX=0;entryY=0.5;entryPerimeter=0;endArrow=none;endFill=0;jettySize=auto;orthogonalLoop=1;strokeWidth=4;fontSize=15;" parent="Dmn8jD3YtfsRe97owfsg-19" source="U4-2aKQdihpznest0NCg-5" target="U4-2aKQdihpznest0NCg-9" edge="1">
          <mxGeometry relative="1" as="geometry" />
        </mxCell>
        <mxCell id="U4-2aKQdihpznest0NCg-10" style="edgeStyle=orthogonalEdgeStyle;curved=1;rounded=0;html=1;exitX=1;exitY=0.5;exitPerimeter=0;entryX=0;entryY=0.5;entryPerimeter=0;endArrow=none;endFill=0;jettySize=auto;orthogonalLoop=1;strokeWidth=4;fontSize=15;exitDx=0;exitDy=0;" parent="Dmn8jD3YtfsRe97owfsg-19" source="U4-2aKQdihpznest0NCg-30" target="U4-2aKQdihpznest0NCg-6" edge="1">
          <mxGeometry relative="1" as="geometry">
            <mxPoint x="631" y="120" as="sourcePoint" />
          </mxGeometry>
        </mxCell>
        <mxCell id="U4-2aKQdihpznest0NCg-11" value="" style="verticalLabelPosition=bottom;verticalAlign=top;html=1;strokeWidth=4;shape=mxgraph.flowchart.on-page_reference;plain-purple;gradientColor=none;strokeColor=#000000;" parent="Dmn8jD3YtfsRe97owfsg-19" vertex="1">
          <mxGeometry x="245.5" y="145" width="30" height="30" as="geometry" />
        </mxCell>
        <mxCell id="U4-2aKQdihpznest0NCg-12" value="Create&lt;br&gt;New Branch" style="text;html=1;strokeColor=none;fillColor=none;align=right;verticalAlign=middle;whiteSpace=wrap;overflow=hidden;fontSize=14;fontStyle=1;fontFamily=Courier New;" parent="Dmn8jD3YtfsRe97owfsg-19" vertex="1">
          <mxGeometry x="20" y="99" width="88.38" height="40" as="geometry" />
        </mxCell>
        <mxCell id="U4-2aKQdihpznest0NCg-13" value="&lt;font color=&quot;#b5739d&quot;&gt;Feature Request 12345&lt;/font&gt;" style="text;html=1;strokeColor=none;fillColor=none;align=center;verticalAlign=middle;whiteSpace=wrap;overflow=hidden;fontSize=14;fontStyle=0;fontColor=#009900;" parent="Dmn8jD3YtfsRe97owfsg-19" vertex="1">
          <mxGeometry x="109.44" y="227" width="202.25" height="20" as="geometry" />
        </mxCell>
        <mxCell id="U4-2aKQdihpznest0NCg-14" value="Tag: 1.0.0" style="text;html=1;strokeColor=none;fillColor=none;align=center;verticalAlign=middle;whiteSpace=wrap;overflow=hidden;fontSize=14;" parent="Dmn8jD3YtfsRe97owfsg-19" vertex="1">
          <mxGeometry x="88.38" width="70" height="20" as="geometry" />
        </mxCell>
        <mxCell id="U4-2aKQdihpznest0NCg-15" value="&lt;div style=&quot;&quot;&gt;Fast CI&lt;/div&gt;&lt;div style=&quot;&quot;&gt;Tests&lt;/div&gt;" style="text;html=1;strokeColor=none;fillColor=none;align=center;verticalAlign=middle;whiteSpace=wrap;overflow=hidden;fontSize=14;fontStyle=1;fontFamily=Verdana;shadow=1;" parent="Dmn8jD3YtfsRe97owfsg-19" vertex="1">
          <mxGeometry x="172.25" y="187" width="75.5" height="40" as="geometry" />
        </mxCell>
        <mxCell id="U4-2aKQdihpznest0NCg-16" value="&lt;div style=&quot;&quot;&gt;CI PIPELINE&lt;/div&gt;" style="text;html=1;strokeColor=none;fillColor=none;align=center;verticalAlign=middle;whiteSpace=wrap;overflow=hidden;fontSize=14;fontStyle=1;fontFamily=Verdana;shadow=1;" parent="Dmn8jD3YtfsRe97owfsg-19" vertex="1">
          <mxGeometry x="367.25" y="330" width="105.5" height="40" as="geometry" />
        </mxCell>
        <mxCell id="U4-2aKQdihpznest0NCg-17" style="edgeStyle=orthogonalEdgeStyle;curved=1;rounded=0;html=1;entryX=1;entryY=0.5;entryPerimeter=0;endArrow=none;endFill=0;jettySize=auto;orthogonalLoop=1;strokeWidth=4;fontSize=15;entryDx=0;entryDy=0;exitX=0;exitY=0.5;exitDx=0;exitDy=0;exitPerimeter=0;" parent="Dmn8jD3YtfsRe97owfsg-19" source="U4-2aKQdihpznest0NCg-24" target="U4-2aKQdihpznest0NCg-11" edge="1">
          <mxGeometry relative="1" as="geometry">
            <mxPoint x="321" y="244.0000000000001" as="sourcePoint" />
            <mxPoint x="341.5" y="209" as="targetPoint" />
          </mxGeometry>
        </mxCell>
        <mxCell id="U4-2aKQdihpznest0NCg-18" value="" style="verticalLabelPosition=bottom;verticalAlign=top;html=1;strokeWidth=4;shape=mxgraph.flowchart.on-page_reference;plain-purple;gradientColor=none;strokeColor=#000000;" parent="Dmn8jD3YtfsRe97owfsg-19" vertex="1">
          <mxGeometry x="195" y="145" width="30" height="30" as="geometry" />
        </mxCell>
        <mxCell id="U4-2aKQdihpznest0NCg-8" style="edgeStyle=orthogonalEdgeStyle;curved=1;rounded=0;html=1;exitX=1;exitY=0.5;exitPerimeter=0;entryX=0;entryY=0.5;entryPerimeter=0;endArrow=none;endFill=0;jettySize=auto;orthogonalLoop=1;strokeWidth=4;fontSize=15;entryDx=0;entryDy=0;startArrow=none;" parent="Dmn8jD3YtfsRe97owfsg-19" source="U4-2aKQdihpznest0NCg-18" target="U4-2aKQdihpznest0NCg-11" edge="1">
          <mxGeometry relative="1" as="geometry">
            <mxPoint x="189.5" y="160" as="targetPoint" />
          </mxGeometry>
        </mxCell>
        <mxCell id="U4-2aKQdihpznest0NCg-19" value="" style="edgeStyle=orthogonalEdgeStyle;curved=1;rounded=0;html=1;exitX=1;exitY=0.5;exitPerimeter=0;entryX=0;entryY=0.5;entryPerimeter=0;endArrow=none;endFill=0;jettySize=auto;orthogonalLoop=1;strokeWidth=4;fontSize=15;entryDx=0;entryDy=0;" parent="Dmn8jD3YtfsRe97owfsg-19" source="U4-2aKQdihpznest0NCg-9" target="U4-2aKQdihpznest0NCg-18" edge="1">
          <mxGeometry relative="1" as="geometry">
            <mxPoint x="177.5" y="160" as="sourcePoint" />
            <mxPoint x="292.5" y="160" as="targetPoint" />
          </mxGeometry>
        </mxCell>
        <mxCell id="U4-2aKQdihpznest0NCg-20" value="&lt;div style=&quot;&quot;&gt;Multiple Commits&lt;br&gt;&lt;/div&gt;" style="text;html=1;strokeColor=none;fillColor=none;align=center;verticalAlign=middle;whiteSpace=wrap;overflow=hidden;fontSize=14;fontStyle=0;fontFamily=Verdana;shadow=1;" parent="Dmn8jD3YtfsRe97owfsg-19" vertex="1">
          <mxGeometry x="125.56" y="93.5" width="170" height="40" as="geometry" />
        </mxCell>
        <mxCell id="U4-2aKQdihpznest0NCg-21" value="Build" style="text;html=1;align=center;verticalAlign=middle;resizable=0;points=[];autosize=1;strokeColor=none;fillColor=none;fontFamily=Verdana;fontStyle=1" parent="Dmn8jD3YtfsRe97owfsg-19" vertex="1">
          <mxGeometry x="310" y="294" width="60" height="30" as="geometry" />
        </mxCell>
        <mxCell id="U4-2aKQdihpznest0NCg-22" value="Test" style="text;html=1;align=center;verticalAlign=middle;resizable=0;points=[];autosize=1;strokeColor=none;fillColor=none;fontFamily=Verdana;fontStyle=1" parent="Dmn8jD3YtfsRe97owfsg-19" vertex="1">
          <mxGeometry x="365" y="294" width="50" height="30" as="geometry" />
        </mxCell>
        <mxCell id="U4-2aKQdihpznest0NCg-24" value="" style="verticalLabelPosition=bottom;verticalAlign=top;html=1;strokeWidth=4;shape=mxgraph.flowchart.on-page_reference;strokeColor=#000000;fillColor=#ffe6cc;" parent="Dmn8jD3YtfsRe97owfsg-19" vertex="1">
          <mxGeometry x="325" y="264" width="30" height="30" as="geometry" />
        </mxCell>
        <mxCell id="U4-2aKQdihpznest0NCg-25" value="" style="edgeStyle=orthogonalEdgeStyle;rounded=0;orthogonalLoop=1;jettySize=auto;html=1;fontFamily=Verdana;strokeWidth=4;strokeColor=default;endArrow=none;endFill=0;exitX=0;exitY=0.5;exitDx=0;exitDy=0;exitPerimeter=0;entryX=1;entryY=0.5;entryDx=0;entryDy=0;entryPerimeter=0;" parent="Dmn8jD3YtfsRe97owfsg-19" source="U4-2aKQdihpznest0NCg-26" target="U4-2aKQdihpznest0NCg-24" edge="1">
          <mxGeometry relative="1" as="geometry">
            <mxPoint x="409" y="279" as="sourcePoint" />
          </mxGeometry>
        </mxCell>
        <mxCell id="U4-2aKQdihpznest0NCg-26" value="" style="verticalLabelPosition=bottom;verticalAlign=top;html=1;strokeWidth=4;shape=mxgraph.flowchart.on-page_reference;strokeColor=#000000;fillColor=#ffe6cc;" parent="Dmn8jD3YtfsRe97owfsg-19" vertex="1">
          <mxGeometry x="375" y="264" width="30" height="30" as="geometry" />
        </mxCell>
        <mxCell id="U4-2aKQdihpznest0NCg-29" style="edgeStyle=orthogonalEdgeStyle;curved=1;rounded=0;html=1;exitX=1;exitY=0.5;exitPerimeter=0;entryX=0;entryY=0.5;entryPerimeter=0;endArrow=none;endFill=0;jettySize=auto;orthogonalLoop=1;strokeWidth=4;fontSize=15;entryDx=0;entryDy=0;startArrow=none;exitDx=0;exitDy=0;" parent="Dmn8jD3YtfsRe97owfsg-19" source="U4-2aKQdihpznest0NCg-11" target="U4-2aKQdihpznest0NCg-30" edge="1">
          <mxGeometry relative="1" as="geometry">
            <mxPoint x="316.5" y="160" as="sourcePoint" />
            <mxPoint x="366" y="160" as="targetPoint" />
          </mxGeometry>
        </mxCell>
        <mxCell id="U4-2aKQdihpznest0NCg-30" value="" style="verticalLabelPosition=bottom;verticalAlign=top;html=1;strokeWidth=4;shape=mxgraph.flowchart.on-page_reference;plain-purple;gradientColor=none;strokeColor=#000000;" parent="Dmn8jD3YtfsRe97owfsg-19" vertex="1">
          <mxGeometry x="553" y="145" width="30" height="30" as="geometry" />
        </mxCell>
        <mxCell id="U4-2aKQdihpznest0NCg-31" style="edgeStyle=orthogonalEdgeStyle;curved=1;rounded=0;html=1;endArrow=none;endFill=0;jettySize=auto;orthogonalLoop=1;strokeWidth=4;fontSize=15;exitX=1;exitY=0.5;exitDx=0;exitDy=0;exitPerimeter=0;entryX=0;entryY=0.5;entryDx=0;entryDy=0;entryPerimeter=0;" parent="Dmn8jD3YtfsRe97owfsg-19" source="JS9Ly_6lhzTqrTnmYddG-10" target="U4-2aKQdihpznest0NCg-30" edge="1">
          <mxGeometry relative="1" as="geometry">
            <mxPoint x="503" y="279" as="sourcePoint" />
            <mxPoint x="573" y="160" as="targetPoint" />
          </mxGeometry>
        </mxCell>
        <mxCell id="U4-2aKQdihpznest0NCg-32" value="" style="whiteSpace=wrap;html=1;rounded=1;shadow=0;strokeColor=#FFB570;strokeWidth=2;fontFamily=Verdana;fillColor=none;" parent="Dmn8jD3YtfsRe97owfsg-19" vertex="1">
          <mxGeometry x="690" y="94" width="227" height="150" as="geometry" />
        </mxCell>
        <mxCell id="U4-2aKQdihpznest0NCg-33" value="&lt;div style=&quot;&quot;&gt;CD PIPELINE&lt;/div&gt;" style="text;html=1;strokeColor=none;fillColor=none;align=center;verticalAlign=middle;whiteSpace=wrap;overflow=hidden;fontSize=14;fontStyle=1;fontFamily=Verdana;shadow=1;" parent="Dmn8jD3YtfsRe97owfsg-19" vertex="1">
          <mxGeometry x="750.75" y="204" width="105.5" height="40" as="geometry" />
        </mxCell>
        <mxCell id="U4-2aKQdihpznest0NCg-34" style="edgeStyle=orthogonalEdgeStyle;curved=1;rounded=0;html=1;endArrow=none;endFill=0;jettySize=auto;orthogonalLoop=1;strokeWidth=4;fontSize=15;exitX=0;exitY=0.5;exitDx=0;exitDy=0;exitPerimeter=0;entryX=1;entryY=0.5;entryDx=0;entryDy=0;entryPerimeter=0;" parent="Dmn8jD3YtfsRe97owfsg-19" source="U4-2aKQdihpznest0NCg-38" target="U4-2aKQdihpznest0NCg-6" edge="1">
          <mxGeometry relative="1" as="geometry">
            <mxPoint x="704.53" y="124.00000000000011" as="sourcePoint" />
            <mxPoint x="659" y="40" as="targetPoint" />
          </mxGeometry>
        </mxCell>
        <mxCell id="U4-2aKQdihpznest0NCg-36" value="Test" style="text;html=1;align=center;verticalAlign=middle;resizable=0;points=[];autosize=1;strokeColor=none;fillColor=none;fontFamily=Verdana;fontStyle=1" parent="Dmn8jD3YtfsRe97owfsg-19" vertex="1">
          <mxGeometry x="750.53" y="174" width="50" height="30" as="geometry" />
        </mxCell>
        <mxCell id="U4-2aKQdihpznest0NCg-37" value="Security" style="text;html=1;align=center;verticalAlign=middle;resizable=0;points=[];autosize=1;strokeColor=none;fillColor=none;fontFamily=Verdana;fontStyle=1" parent="Dmn8jD3YtfsRe97owfsg-19" vertex="1">
          <mxGeometry x="787.53" y="174" width="80" height="30" as="geometry" />
        </mxCell>
        <mxCell id="U4-2aKQdihpznest0NCg-38" value="" style="verticalLabelPosition=bottom;verticalAlign=top;html=1;strokeWidth=4;shape=mxgraph.flowchart.on-page_reference;strokeColor=#000000;fillColor=#ffe6cc;" parent="Dmn8jD3YtfsRe97owfsg-19" vertex="1">
          <mxGeometry x="707.53" y="144" width="30" height="30" as="geometry" />
        </mxCell>
        <mxCell id="U4-2aKQdihpznest0NCg-39" value="" style="edgeStyle=orthogonalEdgeStyle;rounded=0;orthogonalLoop=1;jettySize=auto;html=1;fontFamily=Verdana;strokeWidth=4;strokeColor=default;endArrow=none;endFill=0;exitX=0;exitY=0.5;exitDx=0;exitDy=0;exitPerimeter=0;entryX=1;entryY=0.5;entryDx=0;entryDy=0;entryPerimeter=0;" parent="Dmn8jD3YtfsRe97owfsg-19" source="U4-2aKQdihpznest0NCg-40" target="U4-2aKQdihpznest0NCg-38" edge="1">
          <mxGeometry relative="1" as="geometry">
            <mxPoint x="792.53" y="159" as="sourcePoint" />
          </mxGeometry>
        </mxCell>
        <mxCell id="U4-2aKQdihpznest0NCg-40" value="" style="verticalLabelPosition=bottom;verticalAlign=top;html=1;strokeWidth=4;shape=mxgraph.flowchart.on-page_reference;strokeColor=#000000;fillColor=#ffe6cc;" parent="Dmn8jD3YtfsRe97owfsg-19" vertex="1">
          <mxGeometry x="760.53" y="144" width="30" height="30" as="geometry" />
        </mxCell>
        <mxCell id="U4-2aKQdihpznest0NCg-41" value="" style="verticalLabelPosition=bottom;verticalAlign=top;html=1;strokeWidth=4;shape=mxgraph.flowchart.on-page_reference;strokeColor=#82b366;fillColor=#d5e8d4;" parent="Dmn8jD3YtfsRe97owfsg-19" vertex="1">
          <mxGeometry x="812.53" y="144" width="30" height="30" as="geometry" />
        </mxCell>
        <mxCell id="U4-2aKQdihpznest0NCg-42" value="" style="edgeStyle=orthogonalEdgeStyle;rounded=0;orthogonalLoop=1;jettySize=auto;html=1;fontFamily=Verdana;strokeWidth=4;strokeColor=default;endArrow=none;endFill=0;exitX=0;exitY=0.5;exitDx=0;exitDy=0;exitPerimeter=0;entryX=1;entryY=0.5;entryDx=0;entryDy=0;entryPerimeter=0;" parent="Dmn8jD3YtfsRe97owfsg-19" source="U4-2aKQdihpznest0NCg-41" target="U4-2aKQdihpznest0NCg-40" edge="1">
          <mxGeometry relative="1" as="geometry">
            <mxPoint x="829.53" y="158.86" as="sourcePoint" />
            <mxPoint x="789.53" y="158.86" as="targetPoint" />
          </mxGeometry>
        </mxCell>
        <mxCell id="U4-2aKQdihpznest0NCg-43" value="Review,&lt;br&gt;Approvals" style="text;html=1;align=center;verticalAlign=middle;resizable=0;points=[];autosize=1;strokeColor=none;fillColor=none;fontFamily=Verdana;fontStyle=1" parent="Dmn8jD3YtfsRe97owfsg-19" vertex="1">
          <mxGeometry x="523" y="180" width="90" height="40" as="geometry" />
        </mxCell>
        <mxCell id="U4-2aKQdihpznest0NCg-44" value="" style="verticalLabelPosition=bottom;verticalAlign=top;html=1;strokeWidth=4;shape=mxgraph.flowchart.on-page_reference;strokeColor=#000000;fillColor=#FFE6CC;" parent="Dmn8jD3YtfsRe97owfsg-19" vertex="1">
          <mxGeometry x="868" y="144" width="30" height="30" as="geometry" />
        </mxCell>
        <mxCell id="U4-2aKQdihpznest0NCg-45" value="" style="edgeStyle=orthogonalEdgeStyle;rounded=0;orthogonalLoop=1;jettySize=auto;html=1;fontFamily=Verdana;strokeWidth=4;strokeColor=default;endArrow=none;endFill=0;exitX=0;exitY=0.5;exitDx=0;exitDy=0;exitPerimeter=0;entryX=1;entryY=0.5;entryDx=0;entryDy=0;entryPerimeter=0;" parent="Dmn8jD3YtfsRe97owfsg-19" source="U4-2aKQdihpznest0NCg-44" target="U4-2aKQdihpznest0NCg-41" edge="1">
          <mxGeometry relative="1" as="geometry">
            <mxPoint x="886" y="158.88999999999987" as="sourcePoint" />
            <mxPoint x="836" y="158.88999999999987" as="targetPoint" />
          </mxGeometry>
        </mxCell>
        <mxCell id="U4-2aKQdihpznest0NCg-46" value="Deploy" style="text;html=1;align=center;verticalAlign=middle;resizable=0;points=[];autosize=1;strokeColor=none;fillColor=none;fontFamily=Verdana;fontStyle=1" parent="Dmn8jD3YtfsRe97owfsg-19" vertex="1">
          <mxGeometry x="687.53" y="174" width="70" height="30" as="geometry" />
        </mxCell>
        <mxCell id="U4-2aKQdihpznest0NCg-47" value="Tag: 1.0.1-Dev" style="text;html=1;strokeColor=none;fillColor=none;align=center;verticalAlign=middle;whiteSpace=wrap;overflow=hidden;fontSize=14;" parent="Dmn8jD3YtfsRe97owfsg-19" vertex="1">
          <mxGeometry x="592.5" width="105" height="20" as="geometry" />
        </mxCell>
        <mxCell id="U4-2aKQdihpznest0NCg-48" style="edgeStyle=orthogonalEdgeStyle;curved=1;rounded=0;html=1;exitX=1;exitY=0.5;exitPerimeter=0;entryX=0;entryY=0.5;entryPerimeter=0;endArrow=none;endFill=0;jettySize=auto;orthogonalLoop=1;strokeWidth=4;fontSize=15;entryDx=0;entryDy=0;startArrow=none;exitDx=0;exitDy=0;" parent="Dmn8jD3YtfsRe97owfsg-19" target="U4-2aKQdihpznest0NCg-49" edge="1">
          <mxGeometry relative="1" as="geometry">
            <mxPoint x="659" y="40" as="sourcePoint" />
            <mxPoint x="1029.78" y="39.29000000000002" as="targetPoint" />
          </mxGeometry>
        </mxCell>
        <mxCell id="U4-2aKQdihpznest0NCg-49" value="" style="verticalLabelPosition=bottom;verticalAlign=top;html=1;strokeWidth=4;shape=mxgraph.flowchart.on-page_reference;plain-purple;gradientColor=none;strokeColor=#000000;fillColor=#CCE5FF;" parent="Dmn8jD3YtfsRe97owfsg-19" vertex="1">
          <mxGeometry x="946" y="25" width="30" height="30" as="geometry" />
        </mxCell>
        <mxCell id="U4-2aKQdihpznest0NCg-50" style="edgeStyle=orthogonalEdgeStyle;curved=1;rounded=0;html=1;endArrow=none;endFill=0;jettySize=auto;orthogonalLoop=1;strokeWidth=4;fontSize=15;entryX=0;entryY=0.5;entryDx=0;entryDy=0;entryPerimeter=0;exitX=1;exitY=0.5;exitDx=0;exitDy=0;exitPerimeter=0;" parent="Dmn8jD3YtfsRe97owfsg-19" target="U4-2aKQdihpznest0NCg-49" edge="1" source="U4-2aKQdihpznest0NCg-44">
          <mxGeometry relative="1" as="geometry">
            <mxPoint x="900" y="159" as="sourcePoint" />
            <mxPoint x="987" y="40" as="targetPoint" />
          </mxGeometry>
        </mxCell>
        <mxCell id="U4-2aKQdihpznest0NCg-51" value="Pull Request" style="text;html=1;align=center;verticalAlign=middle;resizable=0;points=[];autosize=1;strokeColor=none;fillColor=none;fontFamily=Verdana;fontStyle=1" parent="Dmn8jD3YtfsRe97owfsg-19" vertex="1">
          <mxGeometry x="365" y="220" width="110" height="30" as="geometry" />
        </mxCell>
        <mxCell id="U4-2aKQdihpznest0NCg-52" value="Deploy to Development" style="text;html=1;align=center;verticalAlign=middle;resizable=0;points=[];autosize=1;strokeColor=none;fillColor=none;fontFamily=Verdana;fontStyle=1" parent="Dmn8jD3YtfsRe97owfsg-19" vertex="1">
          <mxGeometry x="713.5" y="93.5" width="180" height="30" as="geometry" />
        </mxCell>
        <mxCell id="U4-2aKQdihpznest0NCg-55" value="Review,&lt;br&gt;Approvals" style="text;html=1;align=center;verticalAlign=middle;resizable=0;points=[];autosize=1;strokeColor=none;fillColor=none;fontFamily=Verdana;fontStyle=1" parent="Dmn8jD3YtfsRe97owfsg-19" vertex="1">
          <mxGeometry x="916" y="59" width="90" height="40" as="geometry" />
        </mxCell>
        <mxCell id="JS9Ly_6lhzTqrTnmYddG-7" value="Code&lt;br&gt;Quality" style="text;html=1;align=center;verticalAlign=middle;resizable=0;points=[];autosize=1;strokeColor=none;fillColor=none;fontFamily=Verdana;fontStyle=1" vertex="1" parent="Dmn8jD3YtfsRe97owfsg-19">
          <mxGeometry x="405" y="297" width="70" height="40" as="geometry" />
        </mxCell>
        <mxCell id="JS9Ly_6lhzTqrTnmYddG-8" value="" style="verticalLabelPosition=bottom;verticalAlign=top;html=1;strokeWidth=4;shape=mxgraph.flowchart.on-page_reference;strokeColor=#000000;fillColor=#ffe6cc;" vertex="1" parent="Dmn8jD3YtfsRe97owfsg-19">
          <mxGeometry x="425" y="265" width="30" height="30" as="geometry" />
        </mxCell>
        <mxCell id="JS9Ly_6lhzTqrTnmYddG-9" value="" style="edgeStyle=orthogonalEdgeStyle;rounded=0;orthogonalLoop=1;jettySize=auto;html=1;fontFamily=Verdana;strokeWidth=4;strokeColor=default;endArrow=none;endFill=0;exitX=0;exitY=0.5;exitDx=0;exitDy=0;exitPerimeter=0;entryX=1;entryY=0.5;entryDx=0;entryDy=0;entryPerimeter=0;" edge="1" parent="Dmn8jD3YtfsRe97owfsg-19" source="JS9Ly_6lhzTqrTnmYddG-8">
          <mxGeometry relative="1" as="geometry">
            <mxPoint x="266" y="-120.13999999999999" as="sourcePoint" />
            <mxPoint x="405" y="280" as="targetPoint" />
          </mxGeometry>
        </mxCell>
        <mxCell id="JS9Ly_6lhzTqrTnmYddG-10" value="" style="verticalLabelPosition=bottom;verticalAlign=top;html=1;strokeWidth=4;shape=mxgraph.flowchart.on-page_reference;strokeColor=#82b366;fillColor=#d5e8d4;" vertex="1" parent="Dmn8jD3YtfsRe97owfsg-19">
          <mxGeometry x="475" y="265" width="30" height="30" as="geometry" />
        </mxCell>
        <mxCell id="JS9Ly_6lhzTqrTnmYddG-11" value="" style="edgeStyle=orthogonalEdgeStyle;rounded=0;orthogonalLoop=1;jettySize=auto;html=1;fontFamily=Verdana;strokeWidth=4;strokeColor=default;endArrow=none;endFill=0;exitX=0;exitY=0.5;exitDx=0;exitDy=0;exitPerimeter=0;entryX=1;entryY=0.5;entryDx=0;entryDy=0;entryPerimeter=0;" edge="1" parent="Dmn8jD3YtfsRe97owfsg-19" source="JS9Ly_6lhzTqrTnmYddG-10" target="JS9Ly_6lhzTqrTnmYddG-8">
          <mxGeometry relative="1" as="geometry">
            <mxPoint x="135" y="-520.14" as="sourcePoint" />
            <mxPoint x="274" y="-120.00000000000011" as="targetPoint" />
          </mxGeometry>
        </mxCell>
        <mxCell id="JS9Ly_6lhzTqrTnmYddG-12" value="Security" style="text;html=1;align=center;verticalAlign=middle;resizable=0;points=[];autosize=1;strokeColor=none;fillColor=none;fontFamily=Verdana;fontStyle=1" vertex="1" parent="Dmn8jD3YtfsRe97owfsg-19">
          <mxGeometry x="450" y="295" width="80" height="30" as="geometry" />
        </mxCell>
        <mxCell id="vy3_-zyCR2uKD85KFZH5-1" value="Release" style="text;html=1;align=center;verticalAlign=middle;resizable=0;points=[];autosize=1;strokeColor=none;fillColor=none;fontFamily=Verdana;fontStyle=1" vertex="1" parent="Dmn8jD3YtfsRe97owfsg-19">
          <mxGeometry x="843" y="174" width="80" height="30" as="geometry" />
        </mxCell>
        <mxCell id="vy3_-zyCR2uKD85KFZH5-2" value="" style="whiteSpace=wrap;html=1;rounded=1;shadow=0;strokeColor=#FFB570;strokeWidth=2;fontFamily=Verdana;fillColor=none;" vertex="1" parent="Dmn8jD3YtfsRe97owfsg-19">
          <mxGeometry x="1009" y="94" width="226" height="150" as="geometry" />
        </mxCell>
        <mxCell id="vy3_-zyCR2uKD85KFZH5-3" value="&lt;div style=&quot;&quot;&gt;CD PIPELINE&lt;/div&gt;" style="text;html=1;strokeColor=none;fillColor=none;align=center;verticalAlign=middle;whiteSpace=wrap;overflow=hidden;fontSize=14;fontStyle=1;fontFamily=Verdana;shadow=1;" vertex="1" parent="Dmn8jD3YtfsRe97owfsg-19">
          <mxGeometry x="1069.25" y="204" width="105.5" height="40" as="geometry" />
        </mxCell>
        <mxCell id="vy3_-zyCR2uKD85KFZH5-4" style="edgeStyle=orthogonalEdgeStyle;curved=1;rounded=0;html=1;endArrow=none;endFill=0;jettySize=auto;orthogonalLoop=1;strokeWidth=4;fontSize=15;exitX=0;exitY=0.5;exitDx=0;exitDy=0;exitPerimeter=0;entryX=1;entryY=0.5;entryDx=0;entryDy=0;entryPerimeter=0;" edge="1" parent="Dmn8jD3YtfsRe97owfsg-19" source="vy3_-zyCR2uKD85KFZH5-7" target="U4-2aKQdihpznest0NCg-49">
          <mxGeometry relative="1" as="geometry">
            <mxPoint x="1221.53" y="-295.9999999999999" as="sourcePoint" />
            <mxPoint x="977" y="40" as="targetPoint" />
          </mxGeometry>
        </mxCell>
        <mxCell id="vy3_-zyCR2uKD85KFZH5-5" value="Test" style="text;html=1;align=center;verticalAlign=middle;resizable=0;points=[];autosize=1;strokeColor=none;fillColor=none;fontFamily=Verdana;fontStyle=1" vertex="1" parent="Dmn8jD3YtfsRe97owfsg-19">
          <mxGeometry x="1068.53" y="174" width="50" height="30" as="geometry" />
        </mxCell>
        <mxCell id="vy3_-zyCR2uKD85KFZH5-6" value="Security" style="text;html=1;align=center;verticalAlign=middle;resizable=0;points=[];autosize=1;strokeColor=none;fillColor=none;fontFamily=Verdana;fontStyle=1" vertex="1" parent="Dmn8jD3YtfsRe97owfsg-19">
          <mxGeometry x="1105.53" y="174" width="80" height="30" as="geometry" />
        </mxCell>
        <mxCell id="vy3_-zyCR2uKD85KFZH5-7" value="" style="verticalLabelPosition=bottom;verticalAlign=top;html=1;strokeWidth=4;shape=mxgraph.flowchart.on-page_reference;strokeColor=#000000;fillColor=#ffe6cc;" vertex="1" parent="Dmn8jD3YtfsRe97owfsg-19">
          <mxGeometry x="1025.53" y="144" width="30" height="30" as="geometry" />
        </mxCell>
        <mxCell id="vy3_-zyCR2uKD85KFZH5-8" value="" style="edgeStyle=orthogonalEdgeStyle;rounded=0;orthogonalLoop=1;jettySize=auto;html=1;fontFamily=Verdana;strokeWidth=4;strokeColor=default;endArrow=none;endFill=0;exitX=0;exitY=0.5;exitDx=0;exitDy=0;exitPerimeter=0;entryX=1;entryY=0.5;entryDx=0;entryDy=0;entryPerimeter=0;" edge="1" parent="Dmn8jD3YtfsRe97owfsg-19" source="vy3_-zyCR2uKD85KFZH5-9" target="vy3_-zyCR2uKD85KFZH5-7">
          <mxGeometry relative="1" as="geometry">
            <mxPoint x="1310.53" y="-261" as="sourcePoint" />
          </mxGeometry>
        </mxCell>
        <mxCell id="vy3_-zyCR2uKD85KFZH5-9" value="" style="verticalLabelPosition=bottom;verticalAlign=top;html=1;strokeWidth=4;shape=mxgraph.flowchart.on-page_reference;strokeColor=#000000;fillColor=#ffe6cc;" vertex="1" parent="Dmn8jD3YtfsRe97owfsg-19">
          <mxGeometry x="1078.53" y="144" width="30" height="30" as="geometry" />
        </mxCell>
        <mxCell id="vy3_-zyCR2uKD85KFZH5-10" value="" style="verticalLabelPosition=bottom;verticalAlign=top;html=1;strokeWidth=4;shape=mxgraph.flowchart.on-page_reference;strokeColor=#82b366;fillColor=#d5e8d4;" vertex="1" parent="Dmn8jD3YtfsRe97owfsg-19">
          <mxGeometry x="1130.53" y="144" width="30" height="30" as="geometry" />
        </mxCell>
        <mxCell id="vy3_-zyCR2uKD85KFZH5-11" value="" style="edgeStyle=orthogonalEdgeStyle;rounded=0;orthogonalLoop=1;jettySize=auto;html=1;fontFamily=Verdana;strokeWidth=4;strokeColor=default;endArrow=none;endFill=0;exitX=0;exitY=0.5;exitDx=0;exitDy=0;exitPerimeter=0;entryX=1;entryY=0.5;entryDx=0;entryDy=0;entryPerimeter=0;" edge="1" parent="Dmn8jD3YtfsRe97owfsg-19" source="vy3_-zyCR2uKD85KFZH5-10" target="vy3_-zyCR2uKD85KFZH5-9">
          <mxGeometry relative="1" as="geometry">
            <mxPoint x="1347.53" y="-261.14" as="sourcePoint" />
            <mxPoint x="1307.53" y="-261.14" as="targetPoint" />
          </mxGeometry>
        </mxCell>
        <mxCell id="vy3_-zyCR2uKD85KFZH5-12" value="" style="verticalLabelPosition=bottom;verticalAlign=top;html=1;strokeWidth=4;shape=mxgraph.flowchart.on-page_reference;strokeColor=#000000;fillColor=#FFE6CC;" vertex="1" parent="Dmn8jD3YtfsRe97owfsg-19">
          <mxGeometry x="1186" y="144" width="30" height="30" as="geometry" />
        </mxCell>
        <mxCell id="vy3_-zyCR2uKD85KFZH5-13" value="" style="edgeStyle=orthogonalEdgeStyle;rounded=0;orthogonalLoop=1;jettySize=auto;html=1;fontFamily=Verdana;strokeWidth=4;strokeColor=default;endArrow=none;endFill=0;exitX=0;exitY=0.5;exitDx=0;exitDy=0;exitPerimeter=0;entryX=1;entryY=0.5;entryDx=0;entryDy=0;entryPerimeter=0;" edge="1" parent="Dmn8jD3YtfsRe97owfsg-19" source="vy3_-zyCR2uKD85KFZH5-12" target="vy3_-zyCR2uKD85KFZH5-10">
          <mxGeometry relative="1" as="geometry">
            <mxPoint x="1404" y="-261.1100000000001" as="sourcePoint" />
            <mxPoint x="1354" y="-261.1100000000001" as="targetPoint" />
          </mxGeometry>
        </mxCell>
        <mxCell id="vy3_-zyCR2uKD85KFZH5-14" value="Deploy" style="text;html=1;align=center;verticalAlign=middle;resizable=0;points=[];autosize=1;strokeColor=none;fillColor=none;fontFamily=Verdana;fontStyle=1" vertex="1" parent="Dmn8jD3YtfsRe97owfsg-19">
          <mxGeometry x="1005.53" y="174" width="70" height="30" as="geometry" />
        </mxCell>
        <mxCell id="vy3_-zyCR2uKD85KFZH5-15" style="edgeStyle=orthogonalEdgeStyle;curved=1;rounded=0;html=1;exitX=1;exitY=0.5;exitPerimeter=0;entryX=0;entryY=0.5;entryPerimeter=0;endArrow=none;endFill=0;jettySize=auto;orthogonalLoop=1;strokeWidth=4;fontSize=15;entryDx=0;entryDy=0;startArrow=none;exitDx=0;exitDy=0;" edge="1" parent="Dmn8jD3YtfsRe97owfsg-19" target="vy3_-zyCR2uKD85KFZH5-16" source="U4-2aKQdihpznest0NCg-49">
          <mxGeometry relative="1" as="geometry">
            <mxPoint x="976" y="40" as="sourcePoint" />
            <mxPoint x="1546.78" y="-380.71" as="targetPoint" />
          </mxGeometry>
        </mxCell>
        <mxCell id="vy3_-zyCR2uKD85KFZH5-16" value="" style="verticalLabelPosition=bottom;verticalAlign=top;html=1;strokeWidth=4;shape=mxgraph.flowchart.on-page_reference;plain-purple;gradientColor=none;strokeColor=#000000;fillColor=#CCE5FF;" vertex="1" parent="Dmn8jD3YtfsRe97owfsg-19">
          <mxGeometry x="1267" y="25" width="30" height="30" as="geometry" />
        </mxCell>
        <mxCell id="vy3_-zyCR2uKD85KFZH5-17" style="edgeStyle=orthogonalEdgeStyle;curved=1;rounded=0;html=1;endArrow=none;endFill=0;jettySize=auto;orthogonalLoop=1;strokeWidth=4;fontSize=15;entryX=0;entryY=0.5;entryDx=0;entryDy=0;entryPerimeter=0;exitX=1;exitY=0.5;exitDx=0;exitDy=0;exitPerimeter=0;" edge="1" parent="Dmn8jD3YtfsRe97owfsg-19" target="vy3_-zyCR2uKD85KFZH5-16" source="vy3_-zyCR2uKD85KFZH5-12">
          <mxGeometry relative="1" as="geometry">
            <mxPoint x="1215" y="159" as="sourcePoint" />
            <mxPoint x="1505" y="-380" as="targetPoint" />
          </mxGeometry>
        </mxCell>
        <mxCell id="vy3_-zyCR2uKD85KFZH5-18" value="Deploy to Production" style="text;html=1;align=center;verticalAlign=middle;resizable=0;points=[];autosize=1;strokeColor=none;fillColor=none;fontFamily=Verdana;fontStyle=1" vertex="1" parent="Dmn8jD3YtfsRe97owfsg-19">
          <mxGeometry x="1037" y="94" width="170" height="30" as="geometry" />
        </mxCell>
        <mxCell id="vy3_-zyCR2uKD85KFZH5-19" value="Review,&lt;br&gt;Approvals" style="text;html=1;align=center;verticalAlign=middle;resizable=0;points=[];autosize=1;strokeColor=none;fillColor=none;fontFamily=Verdana;fontStyle=1" vertex="1" parent="Dmn8jD3YtfsRe97owfsg-19">
          <mxGeometry x="1237" y="59" width="90" height="40" as="geometry" />
        </mxCell>
        <mxCell id="vy3_-zyCR2uKD85KFZH5-20" value="Release" style="text;html=1;align=center;verticalAlign=middle;resizable=0;points=[];autosize=1;strokeColor=none;fillColor=none;fontFamily=Verdana;fontStyle=1" vertex="1" parent="Dmn8jD3YtfsRe97owfsg-19">
          <mxGeometry x="1161" y="174" width="80" height="30" as="geometry" />
        </mxCell>
        <mxCell id="AEV-X63AkjLyGPIaveKd-1" value="Tag: 1.0.1" style="text;html=1;strokeColor=none;fillColor=none;align=center;verticalAlign=middle;whiteSpace=wrap;overflow=hidden;fontSize=14;" vertex="1" parent="Dmn8jD3YtfsRe97owfsg-19">
          <mxGeometry x="1229.5" width="105" height="20" as="geometry" />
        </mxCell>
      </root>
    </mxGraphModel>
  </diagram>
</mxfile>
